<svg xmlns="http://www.w3.org/2000/svg" xmlns:xlink="http://www.w3.org/1999/xlink" width="500" zoomAndPan="magnify" viewBox="0 0 375 374.999991" height="500" preserveAspectRatio="xMidYMid meet" version="1.0"><defs><g/><clipPath id="b5ff962e67"><path d="M 12 47.386719 L 365.746094 47.386719 L 365.746094 321.136719 L 12 321.136719 Z M 12 47.386719 " clipRule="nonzero"/></clipPath></defs><path fill="#ffffff" d="M 356.78125 103.113281 C 354.386719 96.914062 351.105469 91.242188 346.652344 86.488281 C 335.148438 74.207031 315.796875 66.023438 299.882812 61.523438 C 275.246094 54.5625 249.117188 51.414062 223.574219 50.582031 C 191.75 49.542969 159.753906 51.605469 128.375 57.070312 C 97.140625 62.511719 64.066406 70.769531 40.140625 92.929688 C 9.75 121.066406 11.191406 167.179688 24.09375 203.96875 C 31.800781 225.949219 45.042969 245.320312 64.632812 258.261719 C 73.855469 264.355469 84.066406 268.5625 94.675781 271.503906 C 100.546875 285.277344 101.582031 299.90625 87.585938 307.636719 C 82.851562 310.246094 84.769531 318.5 90.417969 318.09375 C 118.398438 316.089844 142.550781 299.988281 159.398438 278.007812 C 160.523438 276.542969 173.691406 277.195312 175.984375 277 C 182.070312 276.472656 188.140625 275.78125 194.191406 274.964844 C 219.824219 271.511719 245.355469 269.648438 270.726562 264.164062 C 296.21875 258.644531 323.457031 250.664062 338.839844 227.929688 C 352.367188 207.917969 360.171875 182.230469 361.925781 158.371094 C 363.160156 141.476562 363.402344 120.28125 356.78125 103.113281 " fill-opacity="1" fillRule="nonzero"/><g clipPath="url(#b5ff962e67)"><path fill="#231f20" d="M 356.78125 103.113281 L 359.554688 102.046875 C 357.054688 95.5625 353.585938 89.542969 348.820312 84.457031 C 342.722656 77.953125 334.730469 72.6875 326.257812 68.429688 C 317.777344 64.179688 308.796875 60.957031 300.691406 58.664062 C 275.75 51.617188 249.390625 48.449219 223.671875 47.609375 C 218.359375 47.433594 213.039062 47.347656 207.71875 47.347656 C 180.980469 47.347656 154.210938 49.550781 127.867188 54.144531 C 112.171875 56.878906 95.929688 60.328125 80.5 65.9375 C 65.078125 71.550781 50.449219 79.328125 38.117188 90.75 C 28.820312 99.351562 22.371094 109.609375 18.28125 120.683594 C 14.1875 131.761719 12.433594 143.660156 12.433594 155.660156 C 12.433594 172.480469 15.871094 189.515625 21.285156 204.949219 C 25.222656 216.1875 30.589844 226.785156 37.503906 236.257812 C 44.417969 245.726562 52.886719 254.0625 62.992188 260.738281 C 72.535156 267.042969 83.042969 271.359375 93.882812 274.367188 L 94.675781 271.503906 L 91.945312 272.667969 C 94.3125 278.214844 95.792969 283.816406 95.785156 288.757812 C 95.78125 292.164062 95.101562 295.230469 93.613281 297.925781 C 92.109375 300.617188 89.785156 303.019531 86.144531 305.035156 C 84.710938 305.820312 83.613281 307 82.925781 308.304688 C 82.238281 309.609375 81.933594 311.027344 81.933594 312.402344 C 81.9375 314.480469 82.601562 316.527344 83.957031 318.199219 C 84.632812 319.027344 85.503906 319.761719 86.539062 320.273438 C 87.574219 320.792969 88.773438 321.082031 90.019531 321.078125 C 90.222656 321.078125 90.414062 321.074219 90.597656 321.0625 L 90.628906 321.058594 C 105.132812 320.019531 118.625 315.324219 130.617188 308.089844 C 142.617188 300.847656 153.128906 291.070312 161.757812 279.816406 L 159.953125 278.433594 L 161.214844 280.332031 C 161.339844 280.242188 161.535156 280.101562 161.757812 279.816406 L 159.953125 278.433594 L 161.214844 280.332031 L 160.429688 279.152344 L 160.996094 280.449219 C 161.023438 280.4375 161.09375 280.410156 161.214844 280.332031 L 160.429688 279.152344 L 160.996094 280.449219 L 160.851562 280.121094 L 160.976562 280.457031 L 160.996094 280.449219 L 160.851562 280.121094 L 160.976562 280.457031 C 160.996094 280.445312 161.390625 280.34375 161.925781 280.277344 C 162.738281 280.164062 163.898438 280.085938 165.175781 280.042969 C 166.453125 280 167.859375 279.988281 169.222656 279.988281 C 171.042969 279.988281 172.785156 280.007812 174.121094 280.007812 C 174.550781 280.007812 174.941406 280.003906 175.285156 280 C 175.636719 279.996094 175.929688 279.984375 176.222656 279.960938 L 176.238281 279.960938 C 182.378906 279.429688 188.496094 278.734375 194.589844 277.910156 C 220.101562 274.46875 245.714844 272.609375 271.355469 267.066406 C 284.179688 264.289062 297.566406 260.878906 309.824219 255.199219 C 315.953125 252.355469 321.800781 248.945312 327.132812 244.742188 C 332.460938 240.539062 337.269531 235.546875 341.300781 229.59375 C 355.183594 209.039062 363.089844 182.929688 364.886719 158.585938 C 365.285156 153.136719 365.585938 147.226562 365.585938 141.125 C 365.578125 128.132812 364.257812 114.265625 359.558594 102.046875 L 354.003906 104.183594 C 358.308594 115.320312 359.644531 128.542969 359.636719 141.125 C 359.636719 147.035156 359.351562 152.804688 358.957031 158.152344 C 357.253906 181.527344 349.550781 206.800781 336.371094 226.261719 C 332.714844 231.675781 328.351562 236.210938 323.449219 240.074219 C 316.105469 245.863281 307.53125 250.144531 298.402344 253.476562 C 289.277344 256.816406 279.597656 259.203125 270.097656 261.257812 C 245 266.691406 219.546875 268.554688 193.796875 272.023438 C 187.785156 272.832031 181.761719 273.515625 175.726562 274.039062 L 175.742188 274.035156 C 175.667969 274.042969 175.453125 274.050781 175.171875 274.058594 C 174.886719 274.0625 174.527344 274.066406 174.121094 274.066406 C 172.851562 274.066406 171.089844 274.042969 169.222656 274.042969 C 167.023438 274.042969 164.691406 274.074219 162.707031 274.222656 C 161.710938 274.300781 160.808594 274.402344 159.96875 274.582031 C 159.542969 274.675781 159.132812 274.789062 158.671875 274.976562 C 158.445312 275.078125 158.195312 275.199219 157.921875 275.378906 C 157.652344 275.5625 157.339844 275.804688 157.035156 276.199219 C 148.820312 286.925781 138.832031 296.191406 127.546875 302.996094 C 116.257812 309.804688 103.6875 314.164062 90.207031 315.128906 L 90.417969 318.09375 L 90.238281 315.128906 C 90.148438 315.132812 90.074219 315.136719 90.019531 315.136719 C 89.65625 315.132812 89.410156 315.0625 89.1875 314.953125 C 88.859375 314.792969 88.539062 314.488281 88.285156 314.027344 C 88.035156 313.570312 87.878906 312.972656 87.878906 312.402344 C 87.878906 311.898438 87.996094 311.4375 88.183594 311.082031 C 88.378906 310.726562 88.613281 310.46875 89.019531 310.234375 C 93.492188 307.773438 96.753906 304.535156 98.8125 300.808594 C 100.878906 297.085938 101.734375 292.953125 101.730469 288.757812 C 101.722656 282.65625 99.980469 276.375 97.414062 270.339844 C 97.058594 269.511719 96.34375 268.878906 95.476562 268.640625 C 85.085938 265.757812 75.175781 261.664062 66.269531 255.78125 C 56.792969 249.519531 48.839844 241.699219 42.308594 232.753906 C 35.777344 223.808594 30.667969 213.734375 26.894531 202.984375 C 21.675781 188.101562 18.378906 171.664062 18.378906 155.660156 C 18.378906 144.234375 20.054688 133.039062 23.859375 122.742188 C 27.667969 112.445312 33.589844 103.046875 42.15625 95.109375 C 53.753906 84.371094 67.628906 76.949219 82.53125 71.527344 C 97.433594 66.105469 113.347656 62.707031 128.886719 60 C 154.878906 55.46875 181.3125 53.292969 207.71875 53.292969 C 212.972656 53.292969 218.226562 53.378906 223.476562 53.546875 C 248.839844 54.378906 274.742188 57.507812 299.074219 64.386719 C 306.878906 66.589844 315.539062 69.707031 323.589844 73.746094 C 331.640625 77.78125 339.078125 82.742188 344.480469 88.519531 C 348.625 92.945312 351.722656 98.265625 354.003906 104.183594 L 356.78125 103.113281 " fill-opacity="1" fillRule="nonzero"/></g><path fill="#ffffff" d="M 274.761719 70.164062 C 278.820312 69.855469 282.25 70.476562 285.992188 72.347656 " fill-opacity="1" fillRule="nonzero"/><path fill="#231f20" d="M 274.996094 73.128906 C 275.582031 73.082031 276.148438 73.058594 276.691406 73.058594 C 279.515625 73.070312 281.863281 73.621094 284.664062 75.003906 C 286.128906 75.742188 287.914062 75.144531 288.648438 73.675781 C 289.386719 72.210938 288.792969 70.425781 287.320312 69.691406 C 283.847656 67.9375 280.363281 67.101562 276.691406 67.113281 C 275.976562 67.113281 275.261719 67.144531 274.535156 67.199219 C 272.894531 67.328125 271.671875 68.753906 271.800781 70.394531 C 271.925781 72.027344 273.355469 73.253906 274.996094 73.128906 " fill-opacity="1" fillRule="nonzero"/><path fill="#ffffff" d="M 290.980469 75.464844 C 314.6875 79.519531 335.269531 97.914062 342.757812 120.671875 " fill-opacity="1" fillRule="nonzero"/><path fill="#231f20" d="M 290.480469 78.394531 C 301.734375 80.316406 312.324219 85.667969 320.988281 93.285156 C 329.652344 100.902344 336.367188 110.761719 339.929688 121.597656 C 340.445312 123.15625 342.125 124.007812 343.6875 123.496094 C 345.246094 122.984375 346.09375 121.304688 345.582031 119.746094 C 341.65625 107.820312 334.339844 97.109375 324.917969 88.820312 C 315.488281 80.539062 303.9375 74.664062 291.484375 72.535156 C 289.867188 72.257812 288.328125 73.34375 288.050781 74.960938 C 287.773438 76.582031 288.863281 78.117188 290.480469 78.394531 " fill-opacity="1" fillRule="nonzero"/><path fill="#231f20" d="M 342.589844 127.839844 C 342.589844 129.089844 342.589844 130.023438 342.589844 130.960938 C 342.589844 132.601562 343.921875 133.933594 345.5625 133.933594 C 347.207031 133.933594 348.539062 132.601562 348.539062 130.960938 C 348.539062 130.023438 348.539062 129.089844 348.539062 127.839844 C 348.539062 126.199219 347.207031 124.867188 345.5625 124.867188 C 343.921875 124.867188 342.589844 126.199219 342.589844 127.839844 " fill-opacity="1" fillRule="nonzero"/><path fill="#ffffff" d="M 191.800781 262.527344 C 195.230469 262.527344 198.351562 261.90625 201.78125 261.59375 " fill-opacity="1" fillRule="nonzero"/><path fill="#231f20" d="M 191.800781 265.5 C 193.695312 265.5 195.457031 265.328125 197.140625 265.128906 C 198.828125 264.925781 200.433594 264.699219 202.046875 264.554688 C 203.683594 264.40625 204.890625 262.960938 204.742188 261.324219 C 204.589844 259.691406 203.148438 258.488281 201.511719 258.632812 C 199.699219 258.800781 198.027344 259.035156 196.4375 259.226562 C 194.847656 259.417969 193.335938 259.554688 191.800781 259.554688 C 190.15625 259.554688 188.824219 260.886719 188.824219 262.527344 C 188.824219 264.167969 190.15625 265.5 191.800781 265.5 " fill-opacity="1" fillRule="nonzero"/><path fill="#ffffff" d="M 214.878906 260.34375 C 221.742188 258.789062 228.914062 259.097656 235.777344 258.164062 C 249.191406 256.917969 262.601562 254.109375 275.386719 249.121094 " fill-opacity="1" fillRule="nonzero"/><path fill="#231f20" d="M 215.535156 263.242188 C 218.707031 262.523438 222.058594 262.21875 225.527344 261.984375 C 228.992188 261.753906 232.566406 261.597656 236.179688 261.109375 L 235.777344 258.164062 L 236.054688 261.125 C 249.6875 259.855469 263.375 256.996094 276.46875 251.894531 C 278 251.292969 278.753906 249.570312 278.15625 248.042969 C 277.5625 246.511719 275.835938 245.757812 274.304688 246.355469 C 261.824219 251.222656 248.6875 253.980469 235.503906 255.207031 L 235.375 255.21875 C 232.128906 255.664062 228.683594 255.820312 225.128906 256.058594 C 221.582031 256.292969 217.914062 256.609375 214.21875 257.445312 C 212.621094 257.808594 211.613281 259.40625 211.980469 261.003906 C 212.34375 262.605469 213.9375 263.609375 215.539062 263.242188 " fill-opacity="1" fillRule="nonzero"/><g fill="#000000" fill-opacity="1"><g transform="translate(67.029945, 193.544598)"><g><path d="M 17.921875 -47.921875 C 19.941406 -47.921875 21.710938 -47.1875 23.234375 -45.71875 C 24.753906 -44.25 25.890625 -42.632812 26.640625 -40.875 C 26.742188 -40.34375 26.835938 -39.835938 26.921875 -39.359375 C 27.003906 -38.878906 27.046875 -38.398438 27.046875 -37.921875 C 26.984375 -37.441406 26.859375 -36.929688 26.671875 -36.390625 C 26.492188 -35.859375 26.082031 -35.59375 25.4375 -35.59375 C 25.0625 -35.59375 24.609375 -35.804688 24.078125 -36.234375 C 23.972656 -36.347656 23.773438 -36.535156 23.484375 -36.796875 C 23.191406 -37.066406 22.832031 -37.414062 22.40625 -37.84375 C 21.757812 -38.53125 21.171875 -39.0625 20.640625 -39.4375 C 20.054688 -39.863281 19.46875 -40.078125 18.875 -40.078125 C 17.757812 -40.078125 16.757812 -39.460938 15.875 -38.234375 C 15 -37.015625 14.253906 -35.578125 13.640625 -33.921875 C 13.023438 -32.265625 12.546875 -30.625 12.203125 -29 C 11.859375 -27.375 11.65625 -26.160156 11.59375 -25.359375 C 11.488281 -24.554688 11.445312 -23.660156 11.46875 -22.671875 C 11.5 -21.691406 11.566406 -20.707031 11.671875 -19.71875 C 11.785156 -18.726562 11.945312 -17.789062 12.15625 -16.90625 C 12.375 -16.03125 12.613281 -15.273438 12.875 -14.640625 C 13.144531 -13.941406 13.476562 -13.378906 13.875 -12.953125 C 14.28125 -12.523438 14.695312 -12.128906 15.125 -11.765625 C 15.707031 -11.335938 16.503906 -11.125 17.515625 -11.125 C 17.941406 -11.125 18.316406 -11.125 18.640625 -11.125 C 18.960938 -11.125 19.253906 -11.148438 19.515625 -11.203125 C 20.742188 -11.460938 22.769531 -12.316406 25.59375 -13.765625 C 27.726562 -14.828125 29.144531 -15.332031 29.84375 -15.28125 C 30.269531 -15.28125 30.828125 -14.929688 31.515625 -14.234375 C 32.367188 -13.222656 32.796875 -12.101562 32.796875 -10.875 C 32.796875 -9.539062 32.472656 -8.3125 31.828125 -7.1875 C 31.191406 -6.070312 30.367188 -5.046875 29.359375 -4.109375 C 28.347656 -3.179688 27.238281 -2.382812 26.03125 -1.71875 C 24.832031 -1.050781 23.675781 -0.503906 22.5625 -0.078125 C 22.03125 0.078125 21.390625 0.207031 20.640625 0.3125 C 19.890625 0.425781 19.0625 0.484375 18.15625 0.484375 C 15.96875 0.484375 14.0625 0.164062 12.4375 -0.46875 C 10.8125 -1.113281 9.304688 -2.289062 7.921875 -4 C 6.742188 -5.332031 5.726562 -6.769531 4.875 -8.3125 C 4.019531 -9.863281 3.460938 -11.519531 3.203125 -13.28125 C 2.242188 -18.1875 2.375 -23.332031 3.59375 -28.71875 C 3.914062 -30 4.34375 -31.425781 4.875 -33 C 5.414062 -34.570312 6.046875 -36.144531 6.765625 -37.71875 C 7.484375 -39.289062 8.304688 -40.753906 9.234375 -42.109375 C 10.171875 -43.472656 11.195312 -44.554688 12.3125 -45.359375 C 12.957031 -45.890625 13.828125 -46.445312 14.921875 -47.03125 C 16.015625 -47.625 17.015625 -47.921875 17.921875 -47.921875 Z M 29.59375 -8.234375 C 29.488281 -8.609375 29.144531 -8.582031 28.5625 -8.15625 C 28.289062 -8 27.941406 -7.734375 27.515625 -7.359375 C 27.085938 -6.984375 26.660156 -6.582031 26.234375 -6.15625 C 25.804688 -5.726562 25.421875 -5.300781 25.078125 -4.875 C 24.734375 -4.445312 24.476562 -4.078125 24.3125 -3.765625 C 24.15625 -3.335938 24.128906 -3.082031 24.234375 -3 C 24.347656 -2.914062 24.644531 -2.957031 25.125 -3.125 C 26.03125 -3.4375 26.960938 -4.128906 27.921875 -5.203125 C 29.253906 -6.742188 29.8125 -7.753906 29.59375 -8.234375 Z M 29.59375 -8.234375 "/></g></g></g><g fill="#000000" fill-opacity="1"><g transform="translate(101.506597, 193.544598)"><g><path d="M 7.59375 -48.15625 C 7.914062 -48.257812 8.101562 -48.3125 8.15625 -48.3125 C 8.53125 -48.3125 9.007812 -48.054688 9.59375 -47.546875 C 10.1875 -47.046875 10.640625 -46.425781 10.953125 -45.6875 C 11.546875 -44.5625 11.945312 -43.09375 12.15625 -41.28125 C 12.207031 -40.695312 12.242188 -39.828125 12.265625 -38.671875 C 12.296875 -37.523438 12.3125 -36.101562 12.3125 -34.40625 C 12.3125 -33.757812 12.3125 -33.078125 12.3125 -32.359375 C 12.3125 -31.640625 12.328125 -30.972656 12.359375 -30.359375 C 12.390625 -29.742188 12.40625 -29.234375 12.40625 -28.828125 C 12.40625 -28.429688 12.40625 -28.207031 12.40625 -28.15625 L 12.484375 -27.765625 L 13.125 -28.234375 C 13.4375 -28.503906 13.726562 -28.71875 14 -28.875 C 14.269531 -29.039062 14.507812 -29.175781 14.71875 -29.28125 C 16.15625 -30.34375 17.648438 -30.875 19.203125 -30.875 C 20.265625 -30.875 21.113281 -30.660156 21.75 -30.234375 C 22.394531 -29.804688 23.09375 -29.195312 23.84375 -28.40625 C 25.125 -27.125 26.097656 -25.851562 26.765625 -24.59375 C 27.429688 -23.34375 27.894531 -21.914062 28.15625 -20.3125 C 28.375 -19.351562 28.507812 -18.191406 28.5625 -16.828125 C 28.613281 -15.472656 28.640625 -13.941406 28.640625 -12.234375 C 28.640625 -11.015625 28.625 -10.039062 28.59375 -9.3125 C 28.570312 -8.59375 28.535156 -8.078125 28.484375 -7.765625 C 28.265625 -5.359375 27.4375 -3.359375 26 -1.765625 C 25.300781 -1.066406 24.582031 -0.582031 23.84375 -0.3125 C 23.519531 -0.207031 23.171875 -0.15625 22.796875 -0.15625 C 21.734375 -0.15625 20.8125 -0.582031 20.03125 -1.4375 C 19.257812 -2.289062 18.796875 -3.25 18.640625 -4.3125 C 18.585938 -4.582031 18.5625 -5.210938 18.5625 -6.203125 C 18.5625 -7.191406 18.535156 -8.5625 18.484375 -10.3125 C 18.367188 -17.625 18.128906 -21.519531 17.765625 -22 C 17.597656 -22.15625 17.382812 -22.234375 17.125 -22.234375 C 16.90625 -22.234375 16.582031 -22.15625 16.15625 -22 C 15.726562 -21.84375 15.300781 -21.65625 14.875 -21.4375 C 14.445312 -21.226562 14.0625 -21.003906 13.71875 -20.765625 C 13.375 -20.523438 13.148438 -20.320312 13.046875 -20.15625 C 12.773438 -19.78125 12.585938 -19.222656 12.484375 -18.484375 C 12.429688 -18.265625 12.40625 -17.566406 12.40625 -16.390625 C 12.40625 -15.222656 12.375 -13.519531 12.3125 -11.28125 C 12.375 -9.46875 12.390625 -8.015625 12.359375 -6.921875 C 12.328125 -5.828125 12.3125 -5.144531 12.3125 -4.875 C 12.207031 -4.1875 12.023438 -3.578125 11.765625 -3.046875 C 11.492188 -2.296875 11.0625 -1.664062 10.46875 -1.15625 C 9.882812 -0.65625 9.410156 -0.40625 9.046875 -0.40625 C 8.878906 -0.40625 8.609375 -0.441406 8.234375 -0.515625 C 7.867188 -0.597656 7.472656 -0.71875 7.046875 -0.875 C 6.617188 -1.039062 6.21875 -1.226562 5.84375 -1.4375 C 5.46875 -1.65625 5.226562 -1.921875 5.125 -2.234375 C 4.800781 -3.203125 4.5625 -4.484375 4.40625 -6.078125 C 4.289062 -6.878906 4.191406 -7.957031 4.109375 -9.3125 C 4.035156 -10.675781 3.945312 -12.375 3.84375 -14.40625 C 3.625 -17.976562 3.460938 -21.550781 3.359375 -25.125 C 3.253906 -28.695312 3.226562 -32.269531 3.28125 -35.84375 C 3.28125 -37.226562 3.289062 -38.375 3.3125 -39.28125 C 3.34375 -40.1875 3.359375 -40.851562 3.359375 -41.28125 C 3.515625 -42.820312 3.832031 -44.179688 4.3125 -45.359375 C 4.800781 -46.535156 5.894531 -47.46875 7.59375 -48.15625 Z M 22.234375 -27.359375 C 21.867188 -27.578125 21.578125 -27.578125 21.359375 -27.359375 C 20.984375 -26.828125 21.488281 -25.785156 22.875 -24.234375 C 23.625 -23.328125 24.160156 -22.875 24.484375 -22.875 C 24.585938 -22.71875 24.691406 -22.828125 24.796875 -23.203125 C 24.898438 -23.578125 24.820312 -24.054688 24.5625 -24.640625 C 24.34375 -25.171875 23.992188 -25.703125 23.515625 -26.234375 C 23.035156 -26.773438 22.609375 -27.148438 22.234375 -27.359375 Z M 22.234375 -27.359375 "/></g></g></g><g fill="#000000" fill-opacity="1"><g transform="translate(132.943538, 193.544598)"><g><path d="M 8.71875 -47.203125 C 8.875 -47.203125 9.21875 -47.203125 9.75 -47.203125 C 10.289062 -47.203125 10.613281 -47.148438 10.71875 -47.046875 C 10.988281 -46.984375 11.335938 -46.789062 11.765625 -46.46875 C 12.191406 -46.15625 12.601562 -45.785156 13 -45.359375 C 13.394531 -44.929688 13.753906 -44.503906 14.078125 -44.078125 C 14.398438 -43.648438 14.640625 -43.304688 14.796875 -43.046875 C 15.117188 -42.398438 15.203125 -41.488281 15.046875 -40.3125 C 14.984375 -40.050781 14.875 -39.785156 14.71875 -39.515625 C 14.5625 -39.253906 14.347656 -38.960938 14.078125 -38.640625 C 12.421875 -36.722656 10.984375 -35.921875 9.765625 -36.234375 C 9.222656 -36.398438 8.617188 -36.707031 7.953125 -37.15625 C 7.285156 -37.613281 6.632812 -38.117188 6 -38.671875 C 5.363281 -39.234375 4.800781 -39.820312 4.3125 -40.4375 C 3.832031 -41.050781 3.460938 -41.625 3.203125 -42.15625 C 3.097656 -42.476562 3.125 -42.878906 3.28125 -43.359375 C 3.707031 -44.316406 4.453125 -45.171875 5.515625 -45.921875 C 6.585938 -46.671875 7.65625 -47.097656 8.71875 -47.203125 Z M 10.953125 -45.4375 C 10.847656 -45.488281 10.769531 -45.5 10.71875 -45.46875 C 10.664062 -45.445312 10.613281 -45.4375 10.5625 -45.4375 C 10.082031 -45.007812 10.347656 -44.289062 11.359375 -43.28125 C 12.160156 -42.425781 12.691406 -42 12.953125 -42 C 13.171875 -42 13.332031 -42.101562 13.4375 -42.3125 C 13.601562 -42.632812 13.441406 -43.0625 12.953125 -43.59375 C 12.046875 -44.664062 11.378906 -45.28125 10.953125 -45.4375 Z M 8.15625 -30.5625 C 8.957031 -30.769531 9.796875 -30.5 10.671875 -29.75 C 11.554688 -29.007812 12.210938 -28.050781 12.640625 -26.875 C 13.597656 -23.832031 14.1875 -18.523438 14.40625 -10.953125 C 14.457031 -9.460938 14.46875 -8.25 14.4375 -7.3125 C 14.414062 -6.382812 14.347656 -5.734375 14.234375 -5.359375 C 14.023438 -4.296875 13.332031 -3.097656 12.15625 -1.765625 C 10.664062 -0.378906 9.441406 0.3125 8.484375 0.3125 C 7.148438 0.3125 5.988281 -0.175781 5 -1.15625 C 4.007812 -2.144531 3.382812 -3.253906 3.125 -4.484375 C 3.007812 -4.960938 2.925781 -5.707031 2.875 -6.71875 C 2.769531 -8.851562 2.929688 -11.359375 3.359375 -14.234375 C 3.359375 -14.347656 3.394531 -14.75 3.46875 -15.4375 C 3.550781 -16.132812 3.648438 -16.773438 3.765625 -17.359375 C 4.128906 -20.398438 4.457031 -22.800781 4.75 -24.5625 C 5.050781 -26.320312 5.332031 -27.492188 5.59375 -28.078125 C 6.289062 -29.359375 7.144531 -30.1875 8.15625 -30.5625 Z M 9.59375 -28.5625 C 9.28125 -28.769531 8.960938 -28.820312 8.640625 -28.71875 C 8.421875 -28.507812 8.582031 -27.679688 9.125 -26.234375 C 9.226562 -25.972656 9.347656 -25.734375 9.484375 -25.515625 C 9.617188 -25.304688 9.710938 -25.117188 9.765625 -24.953125 C 10.242188 -23.734375 10.640625 -23.125 10.953125 -23.125 C 11.328125 -23.125 11.359375 -23.84375 11.046875 -25.28125 C 10.554688 -27.039062 10.070312 -28.132812 9.59375 -28.5625 Z M 9.59375 -28.5625 "/></g></g></g><g fill="#000000" fill-opacity="1"><g transform="translate(150.861803, 193.544598)"><g><path d="M 11.28125 -40.875 C 11.8125 -41.039062 12.316406 -40.988281 12.796875 -40.71875 C 13.390625 -40.394531 13.882812 -39.898438 14.28125 -39.234375 C 14.675781 -38.566406 15.019531 -37.832031 15.3125 -37.03125 C 15.613281 -36.238281 15.828125 -35.425781 15.953125 -34.59375 C 16.085938 -33.769531 16.15625 -33.066406 16.15625 -32.484375 C 16.15625 -31.628906 16.265625 -31.066406 16.484375 -30.796875 L 16.640625 -30.5625 L 20.484375 -30.484375 L 24.234375 -30.484375 L 24.71875 -30.3125 C 25.363281 -29.832031 25.867188 -29.300781 26.234375 -28.71875 C 26.878906 -27.65625 27.039062 -26.800781 26.71875 -26.15625 C 26.394531 -25.519531 25.863281 -24.851562 25.125 -24.15625 C 24.164062 -23.300781 23.191406 -22.703125 22.203125 -22.359375 C 21.210938 -22.015625 20.078125 -21.816406 18.796875 -21.765625 C 17.734375 -21.597656 17.144531 -21.285156 17.03125 -20.828125 C 16.925781 -20.378906 16.929688 -19.460938 17.046875 -18.078125 C 17.253906 -15.410156 17.425781 -13.328125 17.5625 -11.828125 C 17.695312 -10.335938 17.789062 -9.4375 17.84375 -9.125 C 18.050781 -8.582031 18.265625 -8.394531 18.484375 -8.5625 C 18.585938 -8.613281 18.71875 -8.691406 18.875 -8.796875 C 19.039062 -8.898438 19.226562 -9.007812 19.4375 -9.125 C 20.1875 -9.601562 20.828125 -9.84375 21.359375 -9.84375 C 21.992188 -9.84375 22.582031 -9.578125 23.125 -9.046875 C 23.757812 -8.503906 24.078125 -7.890625 24.078125 -7.203125 C 24.078125 -6.398438 23.8125 -5.554688 23.28125 -4.671875 C 22.75 -3.796875 22.09375 -2.972656 21.3125 -2.203125 C 20.539062 -1.429688 19.703125 -0.789062 18.796875 -0.28125 C 17.890625 0.226562 17.035156 0.535156 16.234375 0.640625 C 15.328125 0.742188 14.554688 0.664062 13.921875 0.40625 C 13.597656 0.34375 13.234375 0.15625 12.828125 -0.15625 C 12.429688 -0.476562 12.035156 -0.878906 11.640625 -1.359375 C 11.242188 -1.835938 10.859375 -2.359375 10.484375 -2.921875 C 10.109375 -3.484375 9.785156 -4.003906 9.515625 -4.484375 C 9.085938 -5.285156 8.738281 -6.363281 8.46875 -7.71875 C 8.207031 -9.082031 7.992188 -10.519531 7.828125 -12.03125 C 7.671875 -13.550781 7.566406 -15.019531 7.515625 -16.4375 C 7.460938 -17.851562 7.4375 -19.015625 7.4375 -19.921875 C 7.488281 -20.398438 7.5 -20.828125 7.46875 -21.203125 C 7.445312 -21.578125 7.410156 -21.789062 7.359375 -21.84375 C 7.203125 -22.050781 6.671875 -22.207031 5.765625 -22.3125 C 5.390625 -22.375 4.945312 -22.484375 4.4375 -22.640625 C 3.9375 -22.796875 3.441406 -23.007812 2.953125 -23.28125 C 2.472656 -23.550781 2.070312 -23.867188 1.75 -24.234375 C 1.4375 -24.609375 1.253906 -24.984375 1.203125 -25.359375 C 0.984375 -26.585938 2.234375 -27.546875 4.953125 -28.234375 C 5.441406 -28.398438 5.84375 -28.535156 6.15625 -28.640625 C 6.476562 -28.742188 6.742188 -28.847656 6.953125 -28.953125 C 7.171875 -29.015625 7.332031 -29.203125 7.4375 -29.515625 C 7.488281 -29.734375 7.554688 -30.082031 7.640625 -30.5625 C 7.722656 -31.039062 7.816406 -31.707031 7.921875 -32.5625 C 7.972656 -33.039062 8.078125 -33.707031 8.234375 -34.5625 C 8.398438 -35.414062 8.613281 -36.269531 8.875 -37.125 C 9.144531 -37.976562 9.476562 -38.765625 9.875 -39.484375 C 10.28125 -40.203125 10.75 -40.664062 11.28125 -40.875 Z M 12.640625 -38.15625 C 12.054688 -38.632812 11.65625 -38.6875 11.4375 -38.3125 C 11.332031 -38.207031 11.332031 -38.023438 11.4375 -37.765625 C 11.488281 -37.597656 11.59375 -37.285156 11.75 -36.828125 C 11.914062 -36.378906 12.101562 -35.898438 12.3125 -35.390625 C 12.53125 -34.890625 12.757812 -34.453125 13 -34.078125 C 13.238281 -33.703125 13.4375 -33.515625 13.59375 -33.515625 C 13.8125 -33.515625 14 -33.660156 14.15625 -33.953125 C 14.320312 -34.253906 14.347656 -34.617188 14.234375 -35.046875 C 14.078125 -36.054688 13.757812 -36.90625 13.28125 -37.59375 C 13.0625 -37.914062 12.847656 -38.101562 12.640625 -38.15625 Z M 12.640625 -38.15625 "/></g></g></g><g fill="#000000" fill-opacity="1"><g transform="translate(178.93908, 193.544598)"><g><path d="M 17.921875 -47.921875 C 19.941406 -47.921875 21.710938 -47.1875 23.234375 -45.71875 C 24.753906 -44.25 25.890625 -42.632812 26.640625 -40.875 C 26.742188 -40.34375 26.835938 -39.835938 26.921875 -39.359375 C 27.003906 -38.878906 27.046875 -38.398438 27.046875 -37.921875 C 26.984375 -37.441406 26.859375 -36.929688 26.671875 -36.390625 C 26.492188 -35.859375 26.082031 -35.59375 25.4375 -35.59375 C 25.0625 -35.59375 24.609375 -35.804688 24.078125 -36.234375 C 23.972656 -36.347656 23.773438 -36.535156 23.484375 -36.796875 C 23.191406 -37.066406 22.832031 -37.414062 22.40625 -37.84375 C 21.757812 -38.53125 21.171875 -39.0625 20.640625 -39.4375 C 20.054688 -39.863281 19.46875 -40.078125 18.875 -40.078125 C 17.757812 -40.078125 16.757812 -39.460938 15.875 -38.234375 C 15 -37.015625 14.253906 -35.578125 13.640625 -33.921875 C 13.023438 -32.265625 12.546875 -30.625 12.203125 -29 C 11.859375 -27.375 11.65625 -26.160156 11.59375 -25.359375 C 11.488281 -24.554688 11.445312 -23.660156 11.46875 -22.671875 C 11.5 -21.691406 11.566406 -20.707031 11.671875 -19.71875 C 11.785156 -18.726562 11.945312 -17.789062 12.15625 -16.90625 C 12.375 -16.03125 12.613281 -15.273438 12.875 -14.640625 C 13.144531 -13.941406 13.476562 -13.378906 13.875 -12.953125 C 14.28125 -12.523438 14.695312 -12.128906 15.125 -11.765625 C 15.707031 -11.335938 16.503906 -11.125 17.515625 -11.125 C 17.941406 -11.125 18.316406 -11.125 18.640625 -11.125 C 18.960938 -11.125 19.253906 -11.148438 19.515625 -11.203125 C 20.742188 -11.460938 22.769531 -12.316406 25.59375 -13.765625 C 27.726562 -14.828125 29.144531 -15.332031 29.84375 -15.28125 C 30.269531 -15.28125 30.828125 -14.929688 31.515625 -14.234375 C 32.367188 -13.222656 32.796875 -12.101562 32.796875 -10.875 C 32.796875 -9.539062 32.472656 -8.3125 31.828125 -7.1875 C 31.191406 -6.070312 30.367188 -5.046875 29.359375 -4.109375 C 28.347656 -3.179688 27.238281 -2.382812 26.03125 -1.71875 C 24.832031 -1.050781 23.675781 -0.503906 22.5625 -0.078125 C 22.03125 0.078125 21.390625 0.207031 20.640625 0.3125 C 19.890625 0.425781 19.0625 0.484375 18.15625 0.484375 C 15.96875 0.484375 14.0625 0.164062 12.4375 -0.46875 C 10.8125 -1.113281 9.304688 -2.289062 7.921875 -4 C 6.742188 -5.332031 5.726562 -6.769531 4.875 -8.3125 C 4.019531 -9.863281 3.460938 -11.519531 3.203125 -13.28125 C 2.242188 -18.1875 2.375 -23.332031 3.59375 -28.71875 C 3.914062 -30 4.34375 -31.425781 4.875 -33 C 5.414062 -34.570312 6.046875 -36.144531 6.765625 -37.71875 C 7.484375 -39.289062 8.304688 -40.753906 9.234375 -42.109375 C 10.171875 -43.472656 11.195312 -44.554688 12.3125 -45.359375 C 12.957031 -45.890625 13.828125 -46.445312 14.921875 -47.03125 C 16.015625 -47.625 17.015625 -47.921875 17.921875 -47.921875 Z M 29.59375 -8.234375 C 29.488281 -8.609375 29.144531 -8.582031 28.5625 -8.15625 C 28.289062 -8 27.941406 -7.734375 27.515625 -7.359375 C 27.085938 -6.984375 26.660156 -6.582031 26.234375 -6.15625 C 25.804688 -5.726562 25.421875 -5.300781 25.078125 -4.875 C 24.734375 -4.445312 24.476562 -4.078125 24.3125 -3.765625 C 24.15625 -3.335938 24.128906 -3.082031 24.234375 -3 C 24.347656 -2.914062 24.644531 -2.957031 25.125 -3.125 C 26.03125 -3.4375 26.960938 -4.128906 27.921875 -5.203125 C 29.253906 -6.742188 29.8125 -7.753906 29.59375 -8.234375 Z M 29.59375 -8.234375 "/></g></g></g><g fill="#000000" fill-opacity="1"><g transform="translate(213.415731, 193.544598)"><g><path d="M 7.59375 -48.15625 C 7.914062 -48.257812 8.101562 -48.3125 8.15625 -48.3125 C 8.53125 -48.3125 9.007812 -48.054688 9.59375 -47.546875 C 10.1875 -47.046875 10.640625 -46.425781 10.953125 -45.6875 C 11.546875 -44.5625 11.945312 -43.09375 12.15625 -41.28125 C 12.207031 -40.695312 12.242188 -39.828125 12.265625 -38.671875 C 12.296875 -37.523438 12.3125 -36.101562 12.3125 -34.40625 C 12.3125 -33.757812 12.3125 -33.078125 12.3125 -32.359375 C 12.3125 -31.640625 12.328125 -30.972656 12.359375 -30.359375 C 12.390625 -29.742188 12.40625 -29.234375 12.40625 -28.828125 C 12.40625 -28.429688 12.40625 -28.207031 12.40625 -28.15625 L 12.484375 -27.765625 L 13.125 -28.234375 C 13.4375 -28.503906 13.726562 -28.71875 14 -28.875 C 14.269531 -29.039062 14.507812 -29.175781 14.71875 -29.28125 C 16.15625 -30.34375 17.648438 -30.875 19.203125 -30.875 C 20.265625 -30.875 21.113281 -30.660156 21.75 -30.234375 C 22.394531 -29.804688 23.09375 -29.195312 23.84375 -28.40625 C 25.125 -27.125 26.097656 -25.851562 26.765625 -24.59375 C 27.429688 -23.34375 27.894531 -21.914062 28.15625 -20.3125 C 28.375 -19.351562 28.507812 -18.191406 28.5625 -16.828125 C 28.613281 -15.472656 28.640625 -13.941406 28.640625 -12.234375 C 28.640625 -11.015625 28.625 -10.039062 28.59375 -9.3125 C 28.570312 -8.59375 28.535156 -8.078125 28.484375 -7.765625 C 28.265625 -5.359375 27.4375 -3.359375 26 -1.765625 C 25.300781 -1.066406 24.582031 -0.582031 23.84375 -0.3125 C 23.519531 -0.207031 23.171875 -0.15625 22.796875 -0.15625 C 21.734375 -0.15625 20.8125 -0.582031 20.03125 -1.4375 C 19.257812 -2.289062 18.796875 -3.25 18.640625 -4.3125 C 18.585938 -4.582031 18.5625 -5.210938 18.5625 -6.203125 C 18.5625 -7.191406 18.535156 -8.5625 18.484375 -10.3125 C 18.367188 -17.625 18.128906 -21.519531 17.765625 -22 C 17.597656 -22.15625 17.382812 -22.234375 17.125 -22.234375 C 16.90625 -22.234375 16.582031 -22.15625 16.15625 -22 C 15.726562 -21.84375 15.300781 -21.65625 14.875 -21.4375 C 14.445312 -21.226562 14.0625 -21.003906 13.71875 -20.765625 C 13.375 -20.523438 13.148438 -20.320312 13.046875 -20.15625 C 12.773438 -19.78125 12.585938 -19.222656 12.484375 -18.484375 C 12.429688 -18.265625 12.40625 -17.566406 12.40625 -16.390625 C 12.40625 -15.222656 12.375 -13.519531 12.3125 -11.28125 C 12.375 -9.46875 12.390625 -8.015625 12.359375 -6.921875 C 12.328125 -5.828125 12.3125 -5.144531 12.3125 -4.875 C 12.207031 -4.1875 12.023438 -3.578125 11.765625 -3.046875 C 11.492188 -2.296875 11.0625 -1.664062 10.46875 -1.15625 C 9.882812 -0.65625 9.410156 -0.40625 9.046875 -0.40625 C 8.878906 -0.40625 8.609375 -0.441406 8.234375 -0.515625 C 7.867188 -0.597656 7.472656 -0.71875 7.046875 -0.875 C 6.617188 -1.039062 6.21875 -1.226562 5.84375 -1.4375 C 5.46875 -1.65625 5.226562 -1.921875 5.125 -2.234375 C 4.800781 -3.203125 4.5625 -4.484375 4.40625 -6.078125 C 4.289062 -6.878906 4.191406 -7.957031 4.109375 -9.3125 C 4.035156 -10.675781 3.945312 -12.375 3.84375 -14.40625 C 3.625 -17.976562 3.460938 -21.550781 3.359375 -25.125 C 3.253906 -28.695312 3.226562 -32.269531 3.28125 -35.84375 C 3.28125 -37.226562 3.289062 -38.375 3.3125 -39.28125 C 3.34375 -40.1875 3.359375 -40.851562 3.359375 -41.28125 C 3.515625 -42.820312 3.832031 -44.179688 4.3125 -45.359375 C 4.800781 -46.535156 5.894531 -47.46875 7.59375 -48.15625 Z M 22.234375 -27.359375 C 21.867188 -27.578125 21.578125 -27.578125 21.359375 -27.359375 C 20.984375 -26.828125 21.488281 -25.785156 22.875 -24.234375 C 23.625 -23.328125 24.160156 -22.875 24.484375 -22.875 C 24.585938 -22.71875 24.691406 -22.828125 24.796875 -23.203125 C 24.898438 -23.578125 24.820312 -24.054688 24.5625 -24.640625 C 24.34375 -25.171875 23.992188 -25.703125 23.515625 -26.234375 C 23.035156 -26.773438 22.609375 -27.148438 22.234375 -27.359375 Z M 22.234375 -27.359375 "/></g></g></g><g fill="#000000" fill-opacity="1"><g transform="translate(244.852672, 193.544598)"><g><path d="M 29.515625 -12.15625 C 29.515625 -13.226562 29.40625 -13.910156 29.1875 -14.203125 C 28.976562 -14.492188 28.769531 -14.53125 28.5625 -14.3125 C 28.457031 -14.207031 28.363281 -13.953125 28.28125 -13.546875 C 28.195312 -13.148438 28.128906 -12.609375 28.078125 -11.921875 C 28.023438 -11.492188 27.972656 -11.09375 27.921875 -10.71875 C 27.867188 -10.34375 27.816406 -10.023438 27.765625 -9.765625 C 27.710938 -9.390625 27.671875 -9.09375 27.640625 -8.875 C 27.609375 -8.664062 27.59375 -8.507812 27.59375 -8.40625 C 27.59375 -7.925781 27.753906 -7.695312 28.078125 -7.71875 C 28.398438 -7.75 28.640625 -7.976562 28.796875 -8.40625 C 29.273438 -9.3125 29.515625 -10.5625 29.515625 -12.15625 Z M 17.203125 -30.71875 C 17.628906 -30.820312 18.023438 -30.875 18.390625 -30.875 C 18.765625 -30.875 19.140625 -30.875 19.515625 -30.875 C 21.753906 -30.875 23.804688 -30.300781 25.671875 -29.15625 C 27.546875 -28.007812 28.9375 -26.425781 29.84375 -24.40625 C 30.90625 -22 31.222656 -17.4375 30.796875 -10.71875 L 30.796875 -4.40625 C 30.898438 -4.289062 31.085938 -4.472656 31.359375 -4.953125 L 31.84375 -5.921875 C 32.15625 -6.828125 32.445312 -7.332031 32.71875 -7.4375 C 32.875 -7.488281 33.007812 -7.460938 33.125 -7.359375 C 33.332031 -6.984375 33.300781 -6.289062 33.03125 -5.28125 C 32.769531 -4.269531 32.320312 -3.335938 31.6875 -2.484375 C 31.363281 -2.054688 31.050781 -1.691406 30.75 -1.390625 C 30.457031 -1.097656 30.15625 -0.847656 29.84375 -0.640625 C 28.988281 -0.160156 28.109375 0.078125 27.203125 0.078125 C 26.554688 0.078125 26.101562 -0.0234375 25.84375 -0.234375 C 25.25 -0.503906 24.617188 -1.050781 23.953125 -1.875 C 23.285156 -2.707031 22.953125 -3.441406 22.953125 -4.078125 C 22.953125 -4.609375 22.820312 -4.984375 22.5625 -5.203125 C 22.394531 -5.304688 22.070312 -5.195312 21.59375 -4.875 C 21.332031 -4.664062 21.050781 -4.425781 20.75 -4.15625 C 20.457031 -3.894531 20.15625 -3.628906 19.84375 -3.359375 C 19.738281 -3.253906 19.628906 -3.132812 19.515625 -3 C 19.410156 -2.863281 19.304688 -2.769531 19.203125 -2.71875 C 16.367188 -0.75 13.566406 0.234375 10.796875 0.234375 C 8.660156 0.234375 6.898438 -0.429688 5.515625 -1.765625 C 4.128906 -3.097656 3.171875 -4.75 2.640625 -6.71875 C 2.054688 -9.113281 2.535156 -11.460938 4.078125 -13.765625 C 4.722656 -14.828125 5.523438 -15.785156 6.484375 -16.640625 C 7.441406 -17.492188 8.476562 -18.238281 9.59375 -18.875 C 10.71875 -19.519531 11.90625 -20.039062 13.15625 -20.4375 C 14.414062 -20.84375 15.65625 -21.070312 16.875 -21.125 C 17.519531 -21.226562 18.203125 -21.304688 18.921875 -21.359375 C 19.640625 -21.410156 20.398438 -21.4375 21.203125 -21.4375 C 21.785156 -21.4375 22.171875 -21.488281 22.359375 -21.59375 C 22.546875 -21.707031 22.640625 -21.867188 22.640625 -22.078125 C 22.640625 -23.304688 21.519531 -24 19.28125 -24.15625 C 17.789062 -24.257812 16.226562 -24.257812 14.59375 -24.15625 C 12.96875 -24.050781 11.222656 -23.8125 9.359375 -23.4375 C 9.035156 -23.382812 8.738281 -23.34375 8.46875 -23.3125 C 8.207031 -23.289062 7.945312 -23.28125 7.6875 -23.28125 C 7.363281 -23.28125 7.039062 -23.332031 6.71875 -23.4375 C 6.289062 -23.707031 6.101562 -24.109375 6.15625 -24.640625 C 6.15625 -24.910156 6.238281 -25.203125 6.40625 -25.515625 C 6.988281 -26.316406 7.691406 -27.023438 8.515625 -27.640625 C 9.347656 -28.253906 10.253906 -28.773438 11.234375 -29.203125 C 12.222656 -29.628906 13.222656 -29.972656 14.234375 -30.234375 C 15.253906 -30.503906 16.242188 -30.664062 17.203125 -30.71875 Z M 21.59375 -15.6875 C 21.59375 -15.84375 20.820312 -15.785156 19.28125 -15.515625 C 18.21875 -15.304688 17.296875 -15.09375 16.515625 -14.875 C 15.742188 -14.664062 15.078125 -14.46875 14.515625 -14.28125 C 13.960938 -14.09375 13.484375 -13.863281 13.078125 -13.59375 C 12.679688 -13.332031 12.269531 -12.988281 11.84375 -12.5625 C 10.9375 -11.65625 10.347656 -10.640625 10.078125 -9.515625 C 9.972656 -9.035156 9.921875 -8.582031 9.921875 -8.15625 C 9.921875 -7.726562 9.972656 -7.382812 10.078125 -7.125 C 10.128906 -6.695312 10.554688 -6.484375 11.359375 -6.484375 C 12.160156 -6.484375 12.988281 -6.679688 13.84375 -7.078125 C 14.695312 -7.484375 15.519531 -7.976562 16.3125 -8.5625 C 17.113281 -9.144531 17.847656 -9.8125 18.515625 -10.5625 C 19.179688 -11.3125 19.703125 -12.03125 20.078125 -12.71875 C 21.203125 -14.320312 21.707031 -15.3125 21.59375 -15.6875 Z M 21.59375 -15.6875 "/></g></g></g><g fill="#000000" fill-opacity="1"><g transform="translate(279.889261, 193.544598)"><g><path d="M 11.28125 -40.875 C 11.8125 -41.039062 12.316406 -40.988281 12.796875 -40.71875 C 13.390625 -40.394531 13.882812 -39.898438 14.28125 -39.234375 C 14.675781 -38.566406 15.019531 -37.832031 15.3125 -37.03125 C 15.613281 -36.238281 15.828125 -35.425781 15.953125 -34.59375 C 16.085938 -33.769531 16.15625 -33.066406 16.15625 -32.484375 C 16.15625 -31.628906 16.265625 -31.066406 16.484375 -30.796875 L 16.640625 -30.5625 L 20.484375 -30.484375 L 24.234375 -30.484375 L 24.71875 -30.3125 C 25.363281 -29.832031 25.867188 -29.300781 26.234375 -28.71875 C 26.878906 -27.65625 27.039062 -26.800781 26.71875 -26.15625 C 26.394531 -25.519531 25.863281 -24.851562 25.125 -24.15625 C 24.164062 -23.300781 23.191406 -22.703125 22.203125 -22.359375 C 21.210938 -22.015625 20.078125 -21.816406 18.796875 -21.765625 C 17.734375 -21.597656 17.144531 -21.285156 17.03125 -20.828125 C 16.925781 -20.378906 16.929688 -19.460938 17.046875 -18.078125 C 17.253906 -15.410156 17.425781 -13.328125 17.5625 -11.828125 C 17.695312 -10.335938 17.789062 -9.4375 17.84375 -9.125 C 18.050781 -8.582031 18.265625 -8.394531 18.484375 -8.5625 C 18.585938 -8.613281 18.71875 -8.691406 18.875 -8.796875 C 19.039062 -8.898438 19.226562 -9.007812 19.4375 -9.125 C 20.1875 -9.601562 20.828125 -9.84375 21.359375 -9.84375 C 21.992188 -9.84375 22.582031 -9.578125 23.125 -9.046875 C 23.757812 -8.503906 24.078125 -7.890625 24.078125 -7.203125 C 24.078125 -6.398438 23.8125 -5.554688 23.28125 -4.671875 C 22.75 -3.796875 22.09375 -2.972656 21.3125 -2.203125 C 20.539062 -1.429688 19.703125 -0.789062 18.796875 -0.28125 C 17.890625 0.226562 17.035156 0.535156 16.234375 0.640625 C 15.328125 0.742188 14.554688 0.664062 13.921875 0.40625 C 13.597656 0.34375 13.234375 0.15625 12.828125 -0.15625 C 12.429688 -0.476562 12.035156 -0.878906 11.640625 -1.359375 C 11.242188 -1.835938 10.859375 -2.359375 10.484375 -2.921875 C 10.109375 -3.484375 9.785156 -4.003906 9.515625 -4.484375 C 9.085938 -5.285156 8.738281 -6.363281 8.46875 -7.71875 C 8.207031 -9.082031 7.992188 -10.519531 7.828125 -12.03125 C 7.671875 -13.550781 7.566406 -15.019531 7.515625 -16.4375 C 7.460938 -17.851562 7.4375 -19.015625 7.4375 -19.921875 C 7.488281 -20.398438 7.5 -20.828125 7.46875 -21.203125 C 7.445312 -21.578125 7.410156 -21.789062 7.359375 -21.84375 C 7.203125 -22.050781 6.671875 -22.207031 5.765625 -22.3125 C 5.390625 -22.375 4.945312 -22.484375 4.4375 -22.640625 C 3.9375 -22.796875 3.441406 -23.007812 2.953125 -23.28125 C 2.472656 -23.550781 2.070312 -23.867188 1.75 -24.234375 C 1.4375 -24.609375 1.253906 -24.984375 1.203125 -25.359375 C 0.984375 -26.585938 2.234375 -27.546875 4.953125 -28.234375 C 5.441406 -28.398438 5.84375 -28.535156 6.15625 -28.640625 C 6.476562 -28.742188 6.742188 -28.847656 6.953125 -28.953125 C 7.171875 -29.015625 7.332031 -29.203125 7.4375 -29.515625 C 7.488281 -29.734375 7.554688 -30.082031 7.640625 -30.5625 C 7.722656 -31.039062 7.816406 -31.707031 7.921875 -32.5625 C 7.972656 -33.039062 8.078125 -33.707031 8.234375 -34.5625 C 8.398438 -35.414062 8.613281 -36.269531 8.875 -37.125 C 9.144531 -37.976562 9.476562 -38.765625 9.875 -39.484375 C 10.28125 -40.203125 10.75 -40.664062 11.28125 -40.875 Z M 12.640625 -38.15625 C 12.054688 -38.632812 11.65625 -38.6875 11.4375 -38.3125 C 11.332031 -38.207031 11.332031 -38.023438 11.4375 -37.765625 C 11.488281 -37.597656 11.59375 -37.285156 11.75 -36.828125 C 11.914062 -36.378906 12.101562 -35.898438 12.3125 -35.390625 C 12.53125 -34.890625 12.757812 -34.453125 13 -34.078125 C 13.238281 -33.703125 13.4375 -33.515625 13.59375 -33.515625 C 13.8125 -33.515625 14 -33.660156 14.15625 -33.953125 C 14.320312 -34.253906 14.347656 -34.617188 14.234375 -35.046875 C 14.078125 -36.054688 13.757812 -36.90625 13.28125 -37.59375 C 13.0625 -37.914062 12.847656 -38.101562 12.640625 -38.15625 Z M 12.640625 -38.15625 "/></g></g></g></svg>