<svg xmlns="http://www.w3.org/2000/svg" xmlns:xlink="http://www.w3.org/1999/xlink" width="600" zoomAndPan="magnify" viewBox="0 0 450 149.999998" height="200" preserveAspectRatio="xMidYMid meet" version="1.0"><defs><g/><clipPath id="7904a117b2"><path d="M 338 15 L 435.214844 15 L 435.214844 90 L 338 90 Z M 338 15 " clipRule="nonzero"/></clipPath></defs><path fill="#ffffff" d="M 432.761719 30.269531 C 432.105469 28.570312 431.207031 27.015625 429.988281 25.710938 C 426.839844 22.347656 421.546875 20.105469 417.1875 18.875 C 410.445312 16.964844 403.296875 16.101562 396.304688 15.875 C 387.59375 15.589844 378.839844 16.15625 370.253906 17.652344 C 361.703125 19.144531 352.652344 21.40625 346.105469 27.476562 C 337.785156 35.1875 338.179688 47.820312 341.710938 57.898438 C 343.820312 63.921875 347.445312 69.226562 352.808594 72.773438 C 355.332031 74.441406 358.125 75.59375 361.027344 76.402344 C 362.636719 80.175781 362.917969 84.183594 359.089844 86.300781 C 357.792969 87.015625 358.316406 89.277344 359.863281 89.164062 C 367.519531 88.617188 374.132812 84.207031 378.742188 78.183594 C 379.050781 77.78125 382.652344 77.960938 383.28125 77.90625 C 384.945312 77.761719 386.609375 77.574219 388.265625 77.351562 C 395.277344 76.402344 402.265625 75.894531 409.210938 74.390625 C 416.1875 72.878906 423.640625 70.691406 427.851562 64.464844 C 431.554688 58.980469 433.6875 51.941406 434.167969 45.40625 C 434.507812 40.777344 434.574219 34.972656 432.761719 30.269531 " fill-opacity="1" fillRule="nonzero"/><g clipPath="url(#7904a117b2)"><path fill="#231f20" d="M 432.761719 30.269531 L 433.519531 29.976562 C 432.835938 28.199219 431.886719 26.550781 430.582031 25.15625 C 428.914062 23.375 426.726562 21.929688 424.40625 20.765625 C 422.085938 19.601562 419.628906 18.71875 417.410156 18.089844 C 410.585938 16.160156 403.371094 15.289062 396.332031 15.058594 C 394.878906 15.011719 393.421875 14.988281 391.964844 14.988281 C 384.648438 14.988281 377.324219 15.59375 370.113281 16.851562 C 365.816406 17.601562 361.371094 18.546875 357.148438 20.082031 C 352.929688 21.621094 348.925781 23.75 345.550781 26.878906 C 343.003906 29.238281 341.242188 32.046875 340.121094 35.082031 C 339 38.117188 338.519531 41.375 338.519531 44.664062 C 338.519531 49.273438 339.460938 53.941406 340.945312 58.167969 C 342.019531 61.246094 343.488281 64.152344 345.382812 66.746094 C 347.273438 69.339844 349.59375 71.625 352.359375 73.453125 C 354.96875 75.179688 357.84375 76.363281 360.8125 77.1875 L 361.027344 76.402344 L 360.28125 76.71875 C 360.929688 78.238281 361.335938 79.777344 361.332031 81.128906 C 361.332031 82.0625 361.144531 82.902344 360.738281 83.640625 C 360.328125 84.378906 359.691406 85.035156 358.695312 85.589844 C 358.300781 85.804688 358 86.125 357.8125 86.484375 C 357.625 86.839844 357.542969 87.230469 357.542969 87.605469 C 357.542969 88.175781 357.722656 88.738281 358.09375 89.195312 C 358.28125 89.421875 358.519531 89.621094 358.800781 89.765625 C 359.085938 89.90625 359.414062 89.984375 359.753906 89.984375 C 359.808594 89.984375 359.863281 89.980469 359.914062 89.980469 L 359.921875 89.976562 C 363.890625 89.695312 367.582031 88.40625 370.867188 86.425781 C 374.148438 84.441406 377.027344 81.761719 379.386719 78.679688 L 378.894531 78.300781 L 379.238281 78.820312 C 379.273438 78.796875 379.328125 78.757812 379.386719 78.679688 L 378.894531 78.300781 L 379.238281 78.820312 L 379.023438 78.496094 L 379.179688 78.851562 C 379.1875 78.851562 379.207031 78.839844 379.238281 78.820312 L 379.023438 78.496094 L 379.179688 78.851562 L 379.140625 78.761719 L 379.171875 78.855469 L 379.179688 78.851562 L 379.140625 78.761719 L 379.171875 78.855469 C 379.179688 78.851562 379.289062 78.824219 379.433594 78.804688 C 379.65625 78.773438 379.972656 78.753906 380.324219 78.742188 C 380.671875 78.730469 381.058594 78.726562 381.429688 78.726562 C 381.929688 78.726562 382.40625 78.730469 382.769531 78.730469 C 382.890625 78.730469 382.996094 78.730469 383.089844 78.730469 C 383.183594 78.726562 383.265625 78.726562 383.347656 78.71875 L 383.351562 78.71875 C 385.03125 78.574219 386.707031 78.382812 388.375 78.15625 C 395.355469 77.214844 402.367188 76.703125 409.382812 75.1875 C 412.890625 74.425781 416.554688 73.492188 419.910156 71.933594 C 421.585938 71.15625 423.1875 70.222656 424.648438 69.070312 C 426.105469 67.917969 427.421875 66.550781 428.523438 64.917969 C 432.324219 59.289062 434.488281 52.136719 434.980469 45.464844 C 435.089844 43.972656 435.171875 42.351562 435.171875 40.679688 C 435.167969 37.121094 434.808594 33.324219 433.519531 29.976562 L 432 30.558594 C 433.179688 33.613281 433.546875 37.234375 433.542969 40.679688 C 433.542969 42.300781 433.464844 43.882812 433.355469 45.347656 C 432.890625 51.75 430.78125 58.675781 427.175781 64.007812 C 426.175781 65.488281 424.980469 66.730469 423.640625 67.789062 C 421.628906 69.375 419.28125 70.550781 416.785156 71.460938 C 414.285156 72.378906 411.636719 73.03125 409.039062 73.59375 C 402.167969 75.082031 395.203125 75.59375 388.15625 76.542969 C 386.511719 76.765625 384.863281 76.953125 383.210938 77.097656 L 383.214844 77.09375 C 383.195312 77.097656 383.136719 77.097656 383.058594 77.101562 C 382.980469 77.101562 382.882812 77.101562 382.769531 77.101562 C 382.421875 77.101562 381.941406 77.097656 381.429688 77.097656 C 380.828125 77.097656 380.191406 77.105469 379.648438 77.148438 C 379.375 77.167969 379.128906 77.195312 378.898438 77.246094 C 378.78125 77.269531 378.667969 77.300781 378.542969 77.355469 C 378.480469 77.382812 378.414062 77.414062 378.335938 77.460938 C 378.261719 77.515625 378.179688 77.582031 378.09375 77.6875 C 375.847656 80.625 373.113281 83.164062 370.023438 85.03125 C 366.933594 86.894531 363.496094 88.089844 359.804688 88.355469 L 359.863281 89.164062 L 359.8125 88.355469 C 359.789062 88.355469 359.769531 88.355469 359.753906 88.355469 C 359.65625 88.355469 359.589844 88.335938 359.527344 88.304688 C 359.4375 88.261719 359.351562 88.179688 359.28125 88.050781 C 359.210938 87.925781 359.167969 87.761719 359.167969 87.605469 C 359.167969 87.46875 359.199219 87.34375 359.253906 87.246094 C 359.304688 87.148438 359.371094 87.078125 359.480469 87.011719 C 360.703125 86.339844 361.597656 85.453125 362.160156 84.429688 C 362.726562 83.410156 362.960938 82.277344 362.960938 81.128906 C 362.957031 79.457031 362.480469 77.738281 361.777344 76.082031 C 361.679688 75.855469 361.484375 75.683594 361.246094 75.617188 C 358.40625 74.828125 355.691406 73.707031 353.253906 72.09375 C 350.660156 70.378906 348.484375 68.234375 346.695312 65.785156 C 344.910156 63.335938 343.511719 60.574219 342.480469 57.628906 C 341.050781 53.550781 340.148438 49.046875 340.148438 44.664062 C 340.148438 41.535156 340.605469 38.464844 341.648438 35.644531 C 342.691406 32.824219 344.3125 30.25 346.65625 28.074219 C 349.828125 25.132812 353.625 23.097656 357.707031 21.613281 C 361.785156 20.128906 366.136719 19.195312 370.390625 18.457031 C 377.503906 17.214844 384.738281 16.617188 391.964844 16.617188 C 393.402344 16.617188 394.84375 16.640625 396.277344 16.6875 C 403.21875 16.914062 410.308594 17.773438 416.96875 19.65625 C 419.105469 20.261719 421.472656 21.113281 423.675781 22.222656 C 425.882812 23.328125 427.917969 24.6875 429.394531 26.269531 C 430.53125 27.480469 431.378906 28.9375 432 30.558594 L 432.761719 30.269531 " fill-opacity="1" fillRule="nonzero"/></g><path fill="#ffffff" d="M 410.3125 21.238281 C 411.425781 21.15625 412.363281 21.324219 413.386719 21.839844 " fill-opacity="1" fillRule="nonzero"/><path fill="#231f20" d="M 410.378906 22.050781 C 410.539062 22.039062 410.695312 22.03125 410.84375 22.03125 C 411.617188 22.035156 412.257812 22.1875 413.023438 22.566406 C 413.425781 22.769531 413.914062 22.605469 414.113281 22.203125 C 414.316406 21.800781 414.15625 21.3125 413.75 21.109375 C 412.800781 20.628906 411.847656 20.402344 410.84375 20.40625 C 410.648438 20.40625 410.449219 20.414062 410.25 20.429688 C 409.804688 20.460938 409.46875 20.855469 409.503906 21.304688 C 409.539062 21.75 409.929688 22.085938 410.378906 22.050781 " fill-opacity="1" fillRule="nonzero"/><path fill="#ffffff" d="M 414.753906 22.691406 C 421.242188 23.804688 426.875 28.84375 428.921875 35.078125 " fill-opacity="1" fillRule="nonzero"/><path fill="#231f20" d="M 414.617188 23.496094 C 417.695312 24.019531 420.59375 25.488281 422.964844 27.574219 C 425.335938 29.660156 427.175781 32.363281 428.148438 35.332031 C 428.289062 35.757812 428.75 35.992188 429.175781 35.851562 C 429.605469 35.710938 429.835938 35.25 429.695312 34.824219 C 428.621094 31.558594 426.621094 28.621094 424.039062 26.351562 C 421.460938 24.082031 418.296875 22.472656 414.890625 21.890625 C 414.449219 21.8125 414.027344 22.113281 413.949219 22.554688 C 413.875 23 414.171875 23.417969 414.617188 23.496094 " fill-opacity="1" fillRule="nonzero"/><path fill="#231f20" d="M 428.878906 37.042969 C 428.878906 37.382812 428.878906 37.640625 428.878906 37.898438 C 428.878906 38.347656 429.242188 38.710938 429.691406 38.710938 C 430.140625 38.710938 430.503906 38.347656 430.503906 37.898438 C 430.503906 37.640625 430.503906 37.382812 430.503906 37.042969 C 430.503906 36.59375 430.140625 36.226562 429.691406 36.226562 C 429.242188 36.226562 428.878906 36.59375 428.878906 37.042969 " fill-opacity="1" fillRule="nonzero"/><path fill="#ffffff" d="M 387.609375 73.941406 C 388.546875 73.941406 389.402344 73.773438 390.339844 73.6875 " fill-opacity="1" fillRule="nonzero"/><path fill="#231f20" d="M 387.609375 74.757812 C 388.128906 74.757812 388.609375 74.710938 389.070312 74.65625 C 389.53125 74.601562 389.972656 74.539062 390.414062 74.5 C 390.863281 74.457031 391.191406 74.0625 391.152344 73.613281 C 391.109375 73.164062 390.714844 72.835938 390.269531 72.875 C 389.769531 72.921875 389.3125 72.984375 388.878906 73.039062 C 388.441406 73.089844 388.03125 73.128906 387.609375 73.128906 C 387.160156 73.128906 386.796875 73.492188 386.796875 73.941406 C 386.796875 74.390625 387.160156 74.757812 387.609375 74.757812 " fill-opacity="1" fillRule="nonzero"/><path fill="#ffffff" d="M 393.925781 73.34375 C 395.804688 72.917969 397.765625 73.003906 399.644531 72.746094 C 403.316406 72.40625 406.984375 71.636719 410.484375 70.269531 " fill-opacity="1" fillRule="nonzero"/><path fill="#231f20" d="M 394.105469 74.140625 C 394.972656 73.941406 395.890625 73.859375 396.839844 73.792969 C 397.789062 73.730469 398.765625 73.6875 399.753906 73.554688 L 399.644531 72.746094 L 399.71875 73.558594 C 403.453125 73.210938 407.199219 72.425781 410.78125 71.027344 C 411.199219 70.863281 411.40625 70.394531 411.242188 69.972656 C 411.082031 69.554688 410.609375 69.347656 410.1875 69.511719 C 406.773438 70.84375 403.179688 71.601562 399.570312 71.9375 L 399.535156 71.941406 C 398.644531 72.0625 397.703125 72.105469 396.730469 72.167969 C 395.757812 72.234375 394.757812 72.320312 393.746094 72.550781 C 393.308594 72.648438 393.03125 73.085938 393.132812 73.523438 C 393.230469 73.964844 393.667969 74.238281 394.105469 74.140625 " fill-opacity="1" fillRule="nonzero"/><g fill="#000000" fill-opacity="1"><g transform="translate(17.486066, 111.741225)"><g><path d="M 22.40625 -59.90625 C 24.9375 -59.90625 27.148438 -58.988281 29.046875 -57.15625 C 30.953125 -55.320312 32.367188 -53.300781 33.296875 -51.09375 C 33.429688 -50.425781 33.546875 -49.789062 33.640625 -49.1875 C 33.742188 -48.59375 33.796875 -48 33.796875 -47.40625 C 33.734375 -46.800781 33.582031 -46.164062 33.34375 -45.5 C 33.113281 -44.832031 32.597656 -44.5 31.796875 -44.5 C 31.328125 -44.5 30.757812 -44.765625 30.09375 -45.296875 C 29.96875 -45.429688 29.71875 -45.664062 29.34375 -46 C 28.976562 -46.332031 28.53125 -46.765625 28 -47.296875 C 27.195312 -48.160156 26.460938 -48.828125 25.796875 -49.296875 C 25.066406 -49.828125 24.332031 -50.09375 23.59375 -50.09375 C 22.195312 -50.09375 20.945312 -49.328125 19.84375 -47.796875 C 18.75 -46.265625 17.816406 -44.460938 17.046875 -42.390625 C 16.285156 -40.328125 15.6875 -38.28125 15.25 -36.25 C 14.8125 -34.21875 14.5625 -32.703125 14.5 -31.703125 C 14.363281 -30.703125 14.3125 -29.582031 14.34375 -28.34375 C 14.382812 -27.113281 14.46875 -25.878906 14.59375 -24.640625 C 14.726562 -23.410156 14.925781 -22.242188 15.1875 -21.140625 C 15.457031 -20.046875 15.757812 -19.097656 16.09375 -18.296875 C 16.425781 -17.429688 16.84375 -16.734375 17.34375 -16.203125 C 17.84375 -15.671875 18.363281 -15.171875 18.90625 -14.703125 C 19.632812 -14.171875 20.632812 -13.90625 21.90625 -13.90625 C 22.4375 -13.90625 22.898438 -13.90625 23.296875 -13.90625 C 23.703125 -13.90625 24.070312 -13.9375 24.40625 -14 C 25.9375 -14.332031 28.46875 -15.398438 32 -17.203125 C 34.664062 -18.535156 36.429688 -19.164062 37.296875 -19.09375 C 37.828125 -19.09375 38.53125 -18.660156 39.40625 -17.796875 C 40.46875 -16.535156 41 -15.132812 41 -13.59375 C 41 -11.925781 40.597656 -10.394531 39.796875 -9 C 38.992188 -7.601562 37.957031 -6.320312 36.6875 -5.15625 C 35.425781 -3.988281 34.046875 -2.988281 32.546875 -2.15625 C 31.046875 -1.320312 29.597656 -0.632812 28.203125 -0.09375 C 27.535156 0.101562 26.734375 0.265625 25.796875 0.390625 C 24.867188 0.523438 23.835938 0.59375 22.703125 0.59375 C 19.960938 0.59375 17.578125 0.195312 15.546875 -0.59375 C 13.515625 -1.394531 11.632812 -2.863281 9.90625 -5 C 8.4375 -6.664062 7.164062 -8.460938 6.09375 -10.390625 C 5.03125 -12.328125 4.332031 -14.394531 4 -16.59375 C 2.800781 -22.726562 2.96875 -29.164062 4.5 -35.90625 C 4.894531 -37.5 5.425781 -39.28125 6.09375 -41.25 C 6.757812 -43.21875 7.539062 -45.179688 8.4375 -47.140625 C 9.34375 -49.109375 10.378906 -50.941406 11.546875 -52.640625 C 12.710938 -54.347656 14 -55.703125 15.40625 -56.703125 C 16.195312 -57.367188 17.273438 -58.066406 18.640625 -58.796875 C 20.015625 -59.535156 21.269531 -59.90625 22.40625 -59.90625 Z M 37 -10.296875 C 36.863281 -10.765625 36.429688 -10.734375 35.703125 -10.203125 C 35.367188 -10.003906 34.929688 -9.671875 34.390625 -9.203125 C 33.859375 -8.734375 33.328125 -8.234375 32.796875 -7.703125 C 32.265625 -7.171875 31.78125 -6.632812 31.34375 -6.09375 C 30.914062 -5.5625 30.601562 -5.097656 30.40625 -4.703125 C 30.195312 -4.171875 30.160156 -3.851562 30.296875 -3.75 C 30.429688 -3.644531 30.800781 -3.695312 31.40625 -3.90625 C 32.53125 -4.300781 33.695312 -5.164062 34.90625 -6.5 C 36.570312 -8.4375 37.269531 -9.703125 37 -10.296875 Z M 37 -10.296875 "/></g></g></g><g fill="#000000" fill-opacity="1"><g transform="translate(60.584399, 111.741225)"><g><path d="M 9.5 -60.203125 C 9.894531 -60.335938 10.128906 -60.40625 10.203125 -60.40625 C 10.671875 -60.40625 11.269531 -60.085938 12 -59.453125 C 12.726562 -58.816406 13.296875 -58.03125 13.703125 -57.09375 C 14.429688 -55.695312 14.929688 -53.863281 15.203125 -51.59375 C 15.265625 -50.863281 15.3125 -49.78125 15.34375 -48.34375 C 15.382812 -46.914062 15.40625 -45.132812 15.40625 -43 C 15.40625 -42.195312 15.40625 -41.34375 15.40625 -40.4375 C 15.40625 -39.539062 15.421875 -38.707031 15.453125 -37.9375 C 15.484375 -37.175781 15.5 -36.546875 15.5 -36.046875 C 15.5 -35.546875 15.5 -35.265625 15.5 -35.203125 L 15.59375 -34.703125 L 16.40625 -35.296875 C 16.800781 -35.628906 17.164062 -35.894531 17.5 -36.09375 C 17.832031 -36.300781 18.132812 -36.46875 18.40625 -36.59375 C 20.195312 -37.925781 22.0625 -38.59375 24 -38.59375 C 25.332031 -38.59375 26.398438 -38.328125 27.203125 -37.796875 C 28.003906 -37.265625 28.867188 -36.5 29.796875 -35.5 C 31.398438 -33.894531 32.617188 -32.3125 33.453125 -30.75 C 34.285156 -29.1875 34.867188 -27.40625 35.203125 -25.40625 C 35.460938 -24.195312 35.625 -22.742188 35.6875 -21.046875 C 35.757812 -19.347656 35.796875 -17.429688 35.796875 -15.296875 C 35.796875 -13.765625 35.78125 -12.546875 35.75 -11.640625 C 35.71875 -10.742188 35.664062 -10.097656 35.59375 -9.703125 C 35.332031 -6.703125 34.300781 -4.203125 32.5 -2.203125 C 31.632812 -1.335938 30.734375 -0.738281 29.796875 -0.40625 C 29.398438 -0.269531 28.96875 -0.203125 28.5 -0.203125 C 27.164062 -0.203125 26.015625 -0.734375 25.046875 -1.796875 C 24.078125 -2.867188 23.492188 -4.070312 23.296875 -5.40625 C 23.234375 -5.738281 23.203125 -6.519531 23.203125 -7.75 C 23.203125 -8.976562 23.164062 -10.695312 23.09375 -12.90625 C 22.96875 -22.03125 22.671875 -26.894531 22.203125 -27.5 C 22.003906 -27.695312 21.738281 -27.796875 21.40625 -27.796875 C 21.132812 -27.796875 20.734375 -27.695312 20.203125 -27.5 C 19.671875 -27.300781 19.132812 -27.066406 18.59375 -26.796875 C 18.0625 -26.535156 17.578125 -26.253906 17.140625 -25.953125 C 16.710938 -25.648438 16.429688 -25.398438 16.296875 -25.203125 C 15.960938 -24.734375 15.726562 -24.03125 15.59375 -23.09375 C 15.53125 -22.832031 15.5 -21.96875 15.5 -20.5 C 15.5 -19.03125 15.46875 -16.894531 15.40625 -14.09375 C 15.46875 -11.832031 15.484375 -10.015625 15.453125 -8.640625 C 15.421875 -7.273438 15.40625 -6.425781 15.40625 -6.09375 C 15.269531 -5.226562 15.035156 -4.460938 14.703125 -3.796875 C 14.367188 -2.867188 13.832031 -2.085938 13.09375 -1.453125 C 12.363281 -0.816406 11.765625 -0.5 11.296875 -0.5 C 11.097656 -0.5 10.765625 -0.546875 10.296875 -0.640625 C 9.828125 -0.742188 9.328125 -0.894531 8.796875 -1.09375 C 8.265625 -1.300781 7.765625 -1.535156 7.296875 -1.796875 C 6.828125 -2.066406 6.53125 -2.398438 6.40625 -2.796875 C 6 -3.992188 5.695312 -5.59375 5.5 -7.59375 C 5.363281 -8.59375 5.242188 -9.941406 5.140625 -11.640625 C 5.046875 -13.347656 4.929688 -15.46875 4.796875 -18 C 4.535156 -22.46875 4.335938 -26.929688 4.203125 -31.390625 C 4.066406 -35.859375 4.03125 -40.328125 4.09375 -44.796875 C 4.09375 -46.535156 4.109375 -47.96875 4.140625 -49.09375 C 4.179688 -50.226562 4.203125 -51.0625 4.203125 -51.59375 C 4.398438 -53.53125 4.796875 -55.234375 5.390625 -56.703125 C 5.992188 -58.171875 7.363281 -59.335938 9.5 -60.203125 Z M 27.796875 -34.203125 C 27.328125 -34.460938 26.960938 -34.460938 26.703125 -34.203125 C 26.234375 -33.535156 26.863281 -32.234375 28.59375 -30.296875 C 29.53125 -29.160156 30.195312 -28.59375 30.59375 -28.59375 C 30.726562 -28.394531 30.863281 -28.53125 31 -29 C 31.132812 -29.46875 31.035156 -30.066406 30.703125 -30.796875 C 30.429688 -31.460938 29.992188 -32.128906 29.390625 -32.796875 C 28.796875 -33.460938 28.265625 -33.929688 27.796875 -34.203125 Z M 27.796875 -34.203125 "/></g></g></g><g fill="#000000" fill-opacity="1"><g transform="translate(99.882881, 111.741225)"><g><path d="M 10.90625 -59 C 11.101562 -59 11.535156 -59 12.203125 -59 C 12.867188 -59 13.269531 -58.929688 13.40625 -58.796875 C 13.738281 -58.734375 14.171875 -58.5 14.703125 -58.09375 C 15.234375 -57.695312 15.75 -57.234375 16.25 -56.703125 C 16.75 -56.171875 17.195312 -55.632812 17.59375 -55.09375 C 18 -54.5625 18.300781 -54.128906 18.5 -53.796875 C 18.894531 -52.992188 18.992188 -51.863281 18.796875 -50.40625 C 18.734375 -50.070312 18.597656 -49.738281 18.390625 -49.40625 C 18.191406 -49.070312 17.925781 -48.703125 17.59375 -48.296875 C 15.53125 -45.898438 13.734375 -44.898438 12.203125 -45.296875 C 11.535156 -45.492188 10.785156 -45.875 9.953125 -46.4375 C 9.117188 -47.007812 8.300781 -47.644531 7.5 -48.34375 C 6.695312 -49.050781 5.992188 -49.785156 5.390625 -50.546875 C 4.796875 -51.316406 4.332031 -52.035156 4 -52.703125 C 3.863281 -53.097656 3.894531 -53.597656 4.09375 -54.203125 C 4.632812 -55.398438 5.570312 -56.460938 6.90625 -57.390625 C 8.238281 -58.328125 9.570312 -58.863281 10.90625 -59 Z M 13.703125 -56.796875 C 13.566406 -56.867188 13.460938 -56.882812 13.390625 -56.84375 C 13.328125 -56.8125 13.265625 -56.796875 13.203125 -56.796875 C 12.597656 -56.265625 12.929688 -55.363281 14.203125 -54.09375 C 15.203125 -53.03125 15.867188 -52.5 16.203125 -52.5 C 16.460938 -52.5 16.660156 -52.632812 16.796875 -52.90625 C 16.992188 -53.300781 16.796875 -53.832031 16.203125 -54.5 C 15.066406 -55.832031 14.234375 -56.597656 13.703125 -56.796875 Z M 10.203125 -38.203125 C 11.203125 -38.460938 12.25 -38.125 13.34375 -37.1875 C 14.445312 -36.257812 15.265625 -35.0625 15.796875 -33.59375 C 16.992188 -29.800781 17.726562 -23.171875 18 -13.703125 C 18.0625 -11.835938 18.078125 -10.320312 18.046875 -9.15625 C 18.015625 -7.988281 17.929688 -7.171875 17.796875 -6.703125 C 17.535156 -5.367188 16.671875 -3.867188 15.203125 -2.203125 C 13.335938 -0.460938 11.800781 0.40625 10.59375 0.40625 C 8.925781 0.40625 7.476562 -0.207031 6.25 -1.4375 C 5.019531 -2.675781 4.238281 -4.0625 3.90625 -5.59375 C 3.769531 -6.195312 3.664062 -7.132812 3.59375 -8.40625 C 3.46875 -11.070312 3.671875 -14.203125 4.203125 -17.796875 C 4.203125 -17.929688 4.25 -18.429688 4.34375 -19.296875 C 4.445312 -20.160156 4.566406 -20.960938 4.703125 -21.703125 C 5.171875 -25.503906 5.585938 -28.503906 5.953125 -30.703125 C 6.316406 -32.898438 6.664062 -34.363281 7 -35.09375 C 7.863281 -36.695312 8.929688 -37.734375 10.203125 -38.203125 Z M 12 -35.703125 C 11.601562 -35.960938 11.203125 -36.03125 10.796875 -35.90625 C 10.535156 -35.632812 10.738281 -34.597656 11.40625 -32.796875 C 11.53125 -32.460938 11.675781 -32.160156 11.84375 -31.890625 C 12.007812 -31.628906 12.128906 -31.398438 12.203125 -31.203125 C 12.796875 -29.671875 13.296875 -28.90625 13.703125 -28.90625 C 14.171875 -28.90625 14.203125 -29.800781 13.796875 -31.59375 C 13.203125 -33.800781 12.601562 -35.171875 12 -35.703125 Z M 12 -35.703125 "/></g></g></g><g fill="#000000" fill-opacity="1"><g transform="translate(122.282023, 111.741225)"><g><path d="M 14.09375 -51.09375 C 14.757812 -51.300781 15.394531 -51.238281 16 -50.90625 C 16.726562 -50.5 17.34375 -49.878906 17.84375 -49.046875 C 18.34375 -48.210938 18.773438 -47.296875 19.140625 -46.296875 C 19.515625 -45.296875 19.785156 -44.28125 19.953125 -43.25 C 20.117188 -42.21875 20.203125 -41.332031 20.203125 -40.59375 C 20.203125 -39.53125 20.332031 -38.832031 20.59375 -38.5 L 20.796875 -38.203125 L 25.59375 -38.09375 L 30.296875 -38.09375 L 30.90625 -37.90625 C 31.695312 -37.300781 32.328125 -36.632812 32.796875 -35.90625 C 33.597656 -34.570312 33.796875 -33.503906 33.390625 -32.703125 C 32.992188 -31.898438 32.332031 -31.066406 31.40625 -30.203125 C 30.195312 -29.128906 28.976562 -28.375 27.75 -27.9375 C 26.519531 -27.507812 25.101562 -27.265625 23.5 -27.203125 C 22.164062 -27.003906 21.429688 -26.617188 21.296875 -26.046875 C 21.160156 -25.484375 21.160156 -24.332031 21.296875 -22.59375 C 21.566406 -19.257812 21.785156 -16.660156 21.953125 -14.796875 C 22.117188 -12.929688 22.234375 -11.800781 22.296875 -11.40625 C 22.566406 -10.738281 22.832031 -10.503906 23.09375 -10.703125 C 23.226562 -10.765625 23.394531 -10.863281 23.59375 -11 C 23.800781 -11.132812 24.035156 -11.269531 24.296875 -11.40625 C 25.234375 -12 26.035156 -12.296875 26.703125 -12.296875 C 27.503906 -12.296875 28.238281 -11.960938 28.90625 -11.296875 C 29.695312 -10.628906 30.09375 -9.863281 30.09375 -9 C 30.09375 -8 29.757812 -6.945312 29.09375 -5.84375 C 28.425781 -4.75 27.609375 -3.71875 26.640625 -2.75 C 25.679688 -1.78125 24.632812 -0.976562 23.5 -0.34375 C 22.363281 0.28125 21.296875 0.660156 20.296875 0.796875 C 19.160156 0.929688 18.195312 0.832031 17.40625 0.5 C 17 0.4375 16.546875 0.207031 16.046875 -0.1875 C 15.546875 -0.59375 15.046875 -1.09375 14.546875 -1.6875 C 14.046875 -2.289062 13.5625 -2.941406 13.09375 -3.640625 C 12.632812 -4.347656 12.238281 -5 11.90625 -5.59375 C 11.363281 -6.59375 10.925781 -7.941406 10.59375 -9.640625 C 10.257812 -11.347656 9.992188 -13.148438 9.796875 -15.046875 C 9.597656 -16.953125 9.460938 -18.785156 9.390625 -20.546875 C 9.328125 -22.316406 9.296875 -23.769531 9.296875 -24.90625 C 9.367188 -25.5 9.382812 -26.03125 9.34375 -26.5 C 9.3125 -26.96875 9.265625 -27.234375 9.203125 -27.296875 C 9.003906 -27.566406 8.335938 -27.769531 7.203125 -27.90625 C 6.734375 -27.96875 6.179688 -28.097656 5.546875 -28.296875 C 4.910156 -28.492188 4.289062 -28.757812 3.6875 -29.09375 C 3.09375 -29.425781 2.59375 -29.828125 2.1875 -30.296875 C 1.789062 -30.765625 1.5625 -31.234375 1.5 -31.703125 C 1.226562 -33.234375 2.796875 -34.429688 6.203125 -35.296875 C 6.796875 -35.492188 7.289062 -35.660156 7.6875 -35.796875 C 8.09375 -35.929688 8.429688 -36.066406 8.703125 -36.203125 C 8.960938 -36.265625 9.160156 -36.5 9.296875 -36.90625 C 9.367188 -37.164062 9.453125 -37.59375 9.546875 -38.1875 C 9.648438 -38.789062 9.769531 -39.628906 9.90625 -40.703125 C 9.96875 -41.296875 10.097656 -42.125 10.296875 -43.1875 C 10.492188 -44.257812 10.757812 -45.328125 11.09375 -46.390625 C 11.425781 -47.460938 11.84375 -48.445312 12.34375 -49.34375 C 12.84375 -50.25 13.425781 -50.832031 14.09375 -51.09375 Z M 15.796875 -47.703125 C 15.066406 -48.296875 14.566406 -48.363281 14.296875 -47.90625 C 14.160156 -47.769531 14.160156 -47.535156 14.296875 -47.203125 C 14.367188 -47.003906 14.503906 -46.617188 14.703125 -46.046875 C 14.898438 -45.484375 15.128906 -44.882812 15.390625 -44.25 C 15.660156 -43.613281 15.945312 -43.0625 16.25 -42.59375 C 16.550781 -42.132812 16.800781 -41.90625 17 -41.90625 C 17.269531 -41.90625 17.503906 -42.085938 17.703125 -42.453125 C 17.898438 -42.816406 17.929688 -43.265625 17.796875 -43.796875 C 17.597656 -45.066406 17.195312 -46.132812 16.59375 -47 C 16.332031 -47.394531 16.066406 -47.628906 15.796875 -47.703125 Z M 15.796875 -47.703125 "/></g></g></g><g fill="#000000" fill-opacity="1"><g transform="translate(157.380673, 111.741225)"><g><path d="M 22.40625 -59.90625 C 24.9375 -59.90625 27.148438 -58.988281 29.046875 -57.15625 C 30.953125 -55.320312 32.367188 -53.300781 33.296875 -51.09375 C 33.429688 -50.425781 33.546875 -49.789062 33.640625 -49.1875 C 33.742188 -48.59375 33.796875 -48 33.796875 -47.40625 C 33.734375 -46.800781 33.582031 -46.164062 33.34375 -45.5 C 33.113281 -44.832031 32.597656 -44.5 31.796875 -44.5 C 31.328125 -44.5 30.757812 -44.765625 30.09375 -45.296875 C 29.96875 -45.429688 29.71875 -45.664062 29.34375 -46 C 28.976562 -46.332031 28.53125 -46.765625 28 -47.296875 C 27.195312 -48.160156 26.460938 -48.828125 25.796875 -49.296875 C 25.066406 -49.828125 24.332031 -50.09375 23.59375 -50.09375 C 22.195312 -50.09375 20.945312 -49.328125 19.84375 -47.796875 C 18.75 -46.265625 17.816406 -44.460938 17.046875 -42.390625 C 16.285156 -40.328125 15.6875 -38.28125 15.25 -36.25 C 14.8125 -34.21875 14.5625 -32.703125 14.5 -31.703125 C 14.363281 -30.703125 14.3125 -29.582031 14.34375 -28.34375 C 14.382812 -27.113281 14.46875 -25.878906 14.59375 -24.640625 C 14.726562 -23.410156 14.925781 -22.242188 15.1875 -21.140625 C 15.457031 -20.046875 15.757812 -19.097656 16.09375 -18.296875 C 16.425781 -17.429688 16.84375 -16.734375 17.34375 -16.203125 C 17.84375 -15.671875 18.363281 -15.171875 18.90625 -14.703125 C 19.632812 -14.171875 20.632812 -13.90625 21.90625 -13.90625 C 22.4375 -13.90625 22.898438 -13.90625 23.296875 -13.90625 C 23.703125 -13.90625 24.070312 -13.9375 24.40625 -14 C 25.9375 -14.332031 28.46875 -15.398438 32 -17.203125 C 34.664062 -18.535156 36.429688 -19.164062 37.296875 -19.09375 C 37.828125 -19.09375 38.53125 -18.660156 39.40625 -17.796875 C 40.46875 -16.535156 41 -15.132812 41 -13.59375 C 41 -11.925781 40.597656 -10.394531 39.796875 -9 C 38.992188 -7.601562 37.957031 -6.320312 36.6875 -5.15625 C 35.425781 -3.988281 34.046875 -2.988281 32.546875 -2.15625 C 31.046875 -1.320312 29.597656 -0.632812 28.203125 -0.09375 C 27.535156 0.101562 26.734375 0.265625 25.796875 0.390625 C 24.867188 0.523438 23.835938 0.59375 22.703125 0.59375 C 19.960938 0.59375 17.578125 0.195312 15.546875 -0.59375 C 13.515625 -1.394531 11.632812 -2.863281 9.90625 -5 C 8.4375 -6.664062 7.164062 -8.460938 6.09375 -10.390625 C 5.03125 -12.328125 4.332031 -14.394531 4 -16.59375 C 2.800781 -22.726562 2.96875 -29.164062 4.5 -35.90625 C 4.894531 -37.5 5.425781 -39.28125 6.09375 -41.25 C 6.757812 -43.21875 7.539062 -45.179688 8.4375 -47.140625 C 9.34375 -49.109375 10.378906 -50.941406 11.546875 -52.640625 C 12.710938 -54.347656 14 -55.703125 15.40625 -56.703125 C 16.195312 -57.367188 17.273438 -58.066406 18.640625 -58.796875 C 20.015625 -59.535156 21.269531 -59.90625 22.40625 -59.90625 Z M 37 -10.296875 C 36.863281 -10.765625 36.429688 -10.734375 35.703125 -10.203125 C 35.367188 -10.003906 34.929688 -9.671875 34.390625 -9.203125 C 33.859375 -8.734375 33.328125 -8.234375 32.796875 -7.703125 C 32.265625 -7.171875 31.78125 -6.632812 31.34375 -6.09375 C 30.914062 -5.5625 30.601562 -5.097656 30.40625 -4.703125 C 30.195312 -4.171875 30.160156 -3.851562 30.296875 -3.75 C 30.429688 -3.644531 30.800781 -3.695312 31.40625 -3.90625 C 32.53125 -4.300781 33.695312 -5.164062 34.90625 -6.5 C 36.570312 -8.4375 37.269531 -9.703125 37 -10.296875 Z M 37 -10.296875 "/></g></g></g><g fill="#000000" fill-opacity="1"><g transform="translate(200.479006, 111.741225)"><g><path d="M 9.5 -60.203125 C 9.894531 -60.335938 10.128906 -60.40625 10.203125 -60.40625 C 10.671875 -60.40625 11.269531 -60.085938 12 -59.453125 C 12.726562 -58.816406 13.296875 -58.03125 13.703125 -57.09375 C 14.429688 -55.695312 14.929688 -53.863281 15.203125 -51.59375 C 15.265625 -50.863281 15.3125 -49.78125 15.34375 -48.34375 C 15.382812 -46.914062 15.40625 -45.132812 15.40625 -43 C 15.40625 -42.195312 15.40625 -41.34375 15.40625 -40.4375 C 15.40625 -39.539062 15.421875 -38.707031 15.453125 -37.9375 C 15.484375 -37.175781 15.5 -36.546875 15.5 -36.046875 C 15.5 -35.546875 15.5 -35.265625 15.5 -35.203125 L 15.59375 -34.703125 L 16.40625 -35.296875 C 16.800781 -35.628906 17.164062 -35.894531 17.5 -36.09375 C 17.832031 -36.300781 18.132812 -36.46875 18.40625 -36.59375 C 20.195312 -37.925781 22.0625 -38.59375 24 -38.59375 C 25.332031 -38.59375 26.398438 -38.328125 27.203125 -37.796875 C 28.003906 -37.265625 28.867188 -36.5 29.796875 -35.5 C 31.398438 -33.894531 32.617188 -32.3125 33.453125 -30.75 C 34.285156 -29.1875 34.867188 -27.40625 35.203125 -25.40625 C 35.460938 -24.195312 35.625 -22.742188 35.6875 -21.046875 C 35.757812 -19.347656 35.796875 -17.429688 35.796875 -15.296875 C 35.796875 -13.765625 35.78125 -12.546875 35.75 -11.640625 C 35.71875 -10.742188 35.664062 -10.097656 35.59375 -9.703125 C 35.332031 -6.703125 34.300781 -4.203125 32.5 -2.203125 C 31.632812 -1.335938 30.734375 -0.738281 29.796875 -0.40625 C 29.398438 -0.269531 28.96875 -0.203125 28.5 -0.203125 C 27.164062 -0.203125 26.015625 -0.734375 25.046875 -1.796875 C 24.078125 -2.867188 23.492188 -4.070312 23.296875 -5.40625 C 23.234375 -5.738281 23.203125 -6.519531 23.203125 -7.75 C 23.203125 -8.976562 23.164062 -10.695312 23.09375 -12.90625 C 22.96875 -22.03125 22.671875 -26.894531 22.203125 -27.5 C 22.003906 -27.695312 21.738281 -27.796875 21.40625 -27.796875 C 21.132812 -27.796875 20.734375 -27.695312 20.203125 -27.5 C 19.671875 -27.300781 19.132812 -27.066406 18.59375 -26.796875 C 18.0625 -26.535156 17.578125 -26.253906 17.140625 -25.953125 C 16.710938 -25.648438 16.429688 -25.398438 16.296875 -25.203125 C 15.960938 -24.734375 15.726562 -24.03125 15.59375 -23.09375 C 15.53125 -22.832031 15.5 -21.96875 15.5 -20.5 C 15.5 -19.03125 15.46875 -16.894531 15.40625 -14.09375 C 15.46875 -11.832031 15.484375 -10.015625 15.453125 -8.640625 C 15.421875 -7.273438 15.40625 -6.425781 15.40625 -6.09375 C 15.269531 -5.226562 15.035156 -4.460938 14.703125 -3.796875 C 14.367188 -2.867188 13.832031 -2.085938 13.09375 -1.453125 C 12.363281 -0.816406 11.765625 -0.5 11.296875 -0.5 C 11.097656 -0.5 10.765625 -0.546875 10.296875 -0.640625 C 9.828125 -0.742188 9.328125 -0.894531 8.796875 -1.09375 C 8.265625 -1.300781 7.765625 -1.535156 7.296875 -1.796875 C 6.828125 -2.066406 6.53125 -2.398438 6.40625 -2.796875 C 6 -3.992188 5.695312 -5.59375 5.5 -7.59375 C 5.363281 -8.59375 5.242188 -9.941406 5.140625 -11.640625 C 5.046875 -13.347656 4.929688 -15.46875 4.796875 -18 C 4.535156 -22.46875 4.335938 -26.929688 4.203125 -31.390625 C 4.066406 -35.859375 4.03125 -40.328125 4.09375 -44.796875 C 4.09375 -46.535156 4.109375 -47.96875 4.140625 -49.09375 C 4.179688 -50.226562 4.203125 -51.0625 4.203125 -51.59375 C 4.398438 -53.53125 4.796875 -55.234375 5.390625 -56.703125 C 5.992188 -58.171875 7.363281 -59.335938 9.5 -60.203125 Z M 27.796875 -34.203125 C 27.328125 -34.460938 26.960938 -34.460938 26.703125 -34.203125 C 26.234375 -33.535156 26.863281 -32.234375 28.59375 -30.296875 C 29.53125 -29.160156 30.195312 -28.59375 30.59375 -28.59375 C 30.726562 -28.394531 30.863281 -28.53125 31 -29 C 31.132812 -29.46875 31.035156 -30.066406 30.703125 -30.796875 C 30.429688 -31.460938 29.992188 -32.128906 29.390625 -32.796875 C 28.796875 -33.460938 28.265625 -33.929688 27.796875 -34.203125 Z M 27.796875 -34.203125 "/></g></g></g><g fill="#000000" fill-opacity="1"><g transform="translate(239.777489, 111.741225)"><g><path d="M 36.90625 -15.203125 C 36.90625 -16.535156 36.769531 -17.382812 36.5 -17.75 C 36.226562 -18.113281 35.960938 -18.164062 35.703125 -17.90625 C 35.566406 -17.769531 35.445312 -17.453125 35.34375 -16.953125 C 35.25 -16.453125 35.164062 -15.769531 35.09375 -14.90625 C 35.03125 -14.363281 34.960938 -13.859375 34.890625 -13.390625 C 34.828125 -12.929688 34.765625 -12.535156 34.703125 -12.203125 C 34.628906 -11.734375 34.578125 -11.363281 34.546875 -11.09375 C 34.515625 -10.832031 34.5 -10.632812 34.5 -10.5 C 34.5 -9.894531 34.695312 -9.609375 35.09375 -9.640625 C 35.5 -9.679688 35.800781 -9.96875 36 -10.5 C 36.601562 -11.632812 36.90625 -13.203125 36.90625 -15.203125 Z M 21.5 -38.40625 C 22.03125 -38.53125 22.53125 -38.59375 23 -38.59375 C 23.46875 -38.59375 23.9375 -38.59375 24.40625 -38.59375 C 27.195312 -38.59375 29.757812 -37.875 32.09375 -36.4375 C 34.425781 -35.007812 36.160156 -33.03125 37.296875 -30.5 C 38.628906 -27.5 39.03125 -21.800781 38.5 -13.40625 L 38.5 -5.5 C 38.632812 -5.363281 38.867188 -5.597656 39.203125 -6.203125 L 39.796875 -7.40625 C 40.203125 -8.53125 40.570312 -9.160156 40.90625 -9.296875 C 41.101562 -9.367188 41.269531 -9.335938 41.40625 -9.203125 C 41.664062 -8.734375 41.628906 -7.863281 41.296875 -6.59375 C 40.960938 -5.332031 40.394531 -4.164062 39.59375 -3.09375 C 39.195312 -2.5625 38.816406 -2.113281 38.453125 -1.75 C 38.085938 -1.382812 37.703125 -1.066406 37.296875 -0.796875 C 36.234375 -0.203125 35.132812 0.09375 34 0.09375 C 33.195312 0.09375 32.628906 -0.0351562 32.296875 -0.296875 C 31.566406 -0.628906 30.785156 -1.3125 29.953125 -2.34375 C 29.117188 -3.382812 28.703125 -4.300781 28.703125 -5.09375 C 28.703125 -5.757812 28.535156 -6.226562 28.203125 -6.5 C 28.003906 -6.632812 27.601562 -6.5 27 -6.09375 C 26.664062 -5.832031 26.316406 -5.535156 25.953125 -5.203125 C 25.585938 -4.867188 25.203125 -4.535156 24.796875 -4.203125 C 24.660156 -4.066406 24.523438 -3.914062 24.390625 -3.75 C 24.265625 -3.582031 24.132812 -3.46875 24 -3.40625 C 20.46875 -0.9375 16.96875 0.296875 13.5 0.296875 C 10.832031 0.296875 8.628906 -0.535156 6.890625 -2.203125 C 5.160156 -3.867188 3.960938 -5.9375 3.296875 -8.40625 C 2.566406 -11.40625 3.164062 -14.335938 5.09375 -17.203125 C 5.894531 -18.535156 6.894531 -19.734375 8.09375 -20.796875 C 9.300781 -21.867188 10.601562 -22.800781 12 -23.59375 C 13.394531 -24.394531 14.875 -25.046875 16.4375 -25.546875 C 18.007812 -26.046875 19.5625 -26.332031 21.09375 -26.40625 C 21.894531 -26.53125 22.742188 -26.625 23.640625 -26.6875 C 24.546875 -26.757812 25.5 -26.796875 26.5 -26.796875 C 27.226562 -26.796875 27.707031 -26.863281 27.9375 -27 C 28.175781 -27.132812 28.296875 -27.332031 28.296875 -27.59375 C 28.296875 -29.132812 26.894531 -30.003906 24.09375 -30.203125 C 22.226562 -30.335938 20.28125 -30.335938 18.25 -30.203125 C 16.21875 -30.066406 14.035156 -29.765625 11.703125 -29.296875 C 11.296875 -29.234375 10.925781 -29.179688 10.59375 -29.140625 C 10.257812 -29.109375 9.925781 -29.09375 9.59375 -29.09375 C 9.195312 -29.09375 8.800781 -29.160156 8.40625 -29.296875 C 7.863281 -29.628906 7.628906 -30.128906 7.703125 -30.796875 C 7.703125 -31.128906 7.800781 -31.5 8 -31.90625 C 8.726562 -32.90625 9.609375 -33.785156 10.640625 -34.546875 C 11.679688 -35.316406 12.816406 -35.96875 14.046875 -36.5 C 15.285156 -37.03125 16.535156 -37.460938 17.796875 -37.796875 C 19.066406 -38.128906 20.300781 -38.332031 21.5 -38.40625 Z M 27 -19.59375 C 27 -19.800781 26.03125 -19.738281 24.09375 -19.40625 C 22.757812 -19.132812 21.609375 -18.863281 20.640625 -18.59375 C 19.679688 -18.332031 18.847656 -18.082031 18.140625 -17.84375 C 17.441406 -17.613281 16.84375 -17.332031 16.34375 -17 C 15.84375 -16.664062 15.328125 -16.234375 14.796875 -15.703125 C 13.660156 -14.566406 12.925781 -13.300781 12.59375 -11.90625 C 12.46875 -11.300781 12.40625 -10.734375 12.40625 -10.203125 C 12.40625 -9.671875 12.46875 -9.238281 12.59375 -8.90625 C 12.664062 -8.363281 13.203125 -8.09375 14.203125 -8.09375 C 15.203125 -8.09375 16.234375 -8.34375 17.296875 -8.84375 C 18.367188 -9.34375 19.40625 -9.957031 20.40625 -10.6875 C 21.40625 -11.425781 22.320312 -12.257812 23.15625 -13.1875 C 23.988281 -14.125 24.632812 -15.03125 25.09375 -15.90625 C 26.5 -17.90625 27.132812 -19.132812 27 -19.59375 Z M 27 -19.59375 "/></g></g></g><g fill="#000000" fill-opacity="1"><g transform="translate(283.575788, 111.741225)"><g><path d="M 14.09375 -51.09375 C 14.757812 -51.300781 15.394531 -51.238281 16 -50.90625 C 16.726562 -50.5 17.34375 -49.878906 17.84375 -49.046875 C 18.34375 -48.210938 18.773438 -47.296875 19.140625 -46.296875 C 19.515625 -45.296875 19.785156 -44.28125 19.953125 -43.25 C 20.117188 -42.21875 20.203125 -41.332031 20.203125 -40.59375 C 20.203125 -39.53125 20.332031 -38.832031 20.59375 -38.5 L 20.796875 -38.203125 L 25.59375 -38.09375 L 30.296875 -38.09375 L 30.90625 -37.90625 C 31.695312 -37.300781 32.328125 -36.632812 32.796875 -35.90625 C 33.597656 -34.570312 33.796875 -33.503906 33.390625 -32.703125 C 32.992188 -31.898438 32.332031 -31.066406 31.40625 -30.203125 C 30.195312 -29.128906 28.976562 -28.375 27.75 -27.9375 C 26.519531 -27.507812 25.101562 -27.265625 23.5 -27.203125 C 22.164062 -27.003906 21.429688 -26.617188 21.296875 -26.046875 C 21.160156 -25.484375 21.160156 -24.332031 21.296875 -22.59375 C 21.566406 -19.257812 21.785156 -16.660156 21.953125 -14.796875 C 22.117188 -12.929688 22.234375 -11.800781 22.296875 -11.40625 C 22.566406 -10.738281 22.832031 -10.503906 23.09375 -10.703125 C 23.226562 -10.765625 23.394531 -10.863281 23.59375 -11 C 23.800781 -11.132812 24.035156 -11.269531 24.296875 -11.40625 C 25.234375 -12 26.035156 -12.296875 26.703125 -12.296875 C 27.503906 -12.296875 28.238281 -11.960938 28.90625 -11.296875 C 29.695312 -10.628906 30.09375 -9.863281 30.09375 -9 C 30.09375 -8 29.757812 -6.945312 29.09375 -5.84375 C 28.425781 -4.75 27.609375 -3.71875 26.640625 -2.75 C 25.679688 -1.78125 24.632812 -0.976562 23.5 -0.34375 C 22.363281 0.28125 21.296875 0.660156 20.296875 0.796875 C 19.160156 0.929688 18.195312 0.832031 17.40625 0.5 C 17 0.4375 16.546875 0.207031 16.046875 -0.1875 C 15.546875 -0.59375 15.046875 -1.09375 14.546875 -1.6875 C 14.046875 -2.289062 13.5625 -2.941406 13.09375 -3.640625 C 12.632812 -4.347656 12.238281 -5 11.90625 -5.59375 C 11.363281 -6.59375 10.925781 -7.941406 10.59375 -9.640625 C 10.257812 -11.347656 9.992188 -13.148438 9.796875 -15.046875 C 9.597656 -16.953125 9.460938 -18.785156 9.390625 -20.546875 C 9.328125 -22.316406 9.296875 -23.769531 9.296875 -24.90625 C 9.367188 -25.5 9.382812 -26.03125 9.34375 -26.5 C 9.3125 -26.96875 9.265625 -27.234375 9.203125 -27.296875 C 9.003906 -27.566406 8.335938 -27.769531 7.203125 -27.90625 C 6.734375 -27.96875 6.179688 -28.097656 5.546875 -28.296875 C 4.910156 -28.492188 4.289062 -28.757812 3.6875 -29.09375 C 3.09375 -29.425781 2.59375 -29.828125 2.1875 -30.296875 C 1.789062 -30.765625 1.5625 -31.234375 1.5 -31.703125 C 1.226562 -33.234375 2.796875 -34.429688 6.203125 -35.296875 C 6.796875 -35.492188 7.289062 -35.660156 7.6875 -35.796875 C 8.09375 -35.929688 8.429688 -36.066406 8.703125 -36.203125 C 8.960938 -36.265625 9.160156 -36.5 9.296875 -36.90625 C 9.367188 -37.164062 9.453125 -37.59375 9.546875 -38.1875 C 9.648438 -38.789062 9.769531 -39.628906 9.90625 -40.703125 C 9.96875 -41.296875 10.097656 -42.125 10.296875 -43.1875 C 10.492188 -44.257812 10.757812 -45.328125 11.09375 -46.390625 C 11.425781 -47.460938 11.84375 -48.445312 12.34375 -49.34375 C 12.84375 -50.25 13.425781 -50.832031 14.09375 -51.09375 Z M 15.796875 -47.703125 C 15.066406 -48.296875 14.566406 -48.363281 14.296875 -47.90625 C 14.160156 -47.769531 14.160156 -47.535156 14.296875 -47.203125 C 14.367188 -47.003906 14.503906 -46.617188 14.703125 -46.046875 C 14.898438 -45.484375 15.128906 -44.882812 15.390625 -44.25 C 15.660156 -43.613281 15.945312 -43.0625 16.25 -42.59375 C 16.550781 -42.132812 16.800781 -41.90625 17 -41.90625 C 17.269531 -41.90625 17.503906 -42.085938 17.703125 -42.453125 C 17.898438 -42.816406 17.929688 -43.265625 17.796875 -43.796875 C 17.597656 -45.066406 17.195312 -46.132812 16.59375 -47 C 16.332031 -47.394531 16.066406 -47.628906 15.796875 -47.703125 Z M 15.796875 -47.703125 "/></g></g></g></svg>